<svg xmlns="http://www.w3.org/2000/svg" viewBox="-32 0 368 368">
  <path fill="#cce4ff" d="M40 8C22 8 8 22 8 40v320h224V40c0-18 14-32 32-32zm144 160H56V72h128zm0 0"/>
  <g fill="#007aff">
    <path d="M8 368h224c4 0 8-4 8-8v-56h56c4 0 8-4 8-8V40c0-22-18-40-40-40H40C18 0 0 18 0 40v320c0 4 4 8 8 8zM240 40a24 24 0 0 1 48 0v248h-48zM16 40c0-13 11-24 24-24h192c-5 7-8 15-8 24v312H16zm0 0"/>
    <path d="M184 64H56c-4 0-8 4-8 8v96c0 4 4 8 8 8h128c4 0 8-4 8-8V72c0-4-4-8-8-8zm-8 96H64V80h112zm8 48H56a8 8 0 1 0 0 16h128a8 8 0 1 0 0-16zm0 48H56a8 8 0 1 0 0 16h128a8 8 0 1 0 0-16zm0 48H56a8 8 0 1 0 0 16h128a8 8 0 1 0 0-16zm0 0"/>
  </g>
</svg>
