<svg xmlns="http://www.w3.org/2000/svg" viewBox="0 0 56 56" width="56" height="56">
  <path fill="rgb(5, 27, 44)" d="M27.948 0C12.498.03-.086 12.745 0 28.233a28.11 28.11 0 0 0 7.274 18.713 27.978 27.978 0 0 0 17.883 9.052.321.321 0 0 0 .355-.322V28.072h-2.176a.322.322 0 0 1-.322-.323v-4.356a.323.323 0 0 1 .322-.322h6.83a.321.321 0 0 1 .322.322v32.283a.323.323 0 0 0 .354.322 27.98 27.98 0 0 0 18.416-9.657 28.116 28.116 0 0 0 6.704-19.721 28.102 28.102 0 0 0-8.7-18.922A27.965 27.965 0 0 0 27.947 0Zm7.958 49.745a.32.32 0 0 1-.394-.156.323.323 0 0 1-.035-.149v-4.607a.485.485 0 0 1 .276-.438 18.056 18.056 0 0 0 8.505-8.487 18.12 18.12 0 0 0 1.308-11.959 18.084 18.084 0 0 0-6.467-10.134 18.005 18.005 0 0 0-11.378-3.822c-9.579.147-17.439 7.89-17.743 17.49a18.135 18.135 0 0 0 2.626 9.99 18.07 18.07 0 0 0 7.65 6.922.483.483 0 0 1 .277.438v4.607a.325.325 0 0 1-.278.32.321.321 0 0 1-.152-.015 23.062 23.062 0 0 1-11.015-8.543A23.152 23.152 0 0 1 4.99 27.859C5.1 15.327 15.315 5.093 27.821 5c12.776-.103 23.195 10.287 23.195 23.07 0 9.942-6.299 18.435-15.11 21.674Z"/>
</svg>
