<?xml version="1.0" encoding="UTF-8" standalone="no"?>
<svg width="479px" height="479px" viewBox="0 0 479 479" version="1.1" xmlns="http://www.w3.org/2000/svg" xmlns:xlink="http://www.w3.org/1999/xlink">
    <!-- Generator: Sketch 3.7.2 (28276) - http://www.bohemiancoding.com/sketch -->
    <title>github</title>
    <desc>Created with Sketch.</desc>
    <defs></defs>
    <g id="Page-1" stroke="none" stroke-width="1" fill="none" fill-rule="evenodd">
        <g id="github">
            <circle id="Oval-1" fill="#000000" cx="239.5" cy="239.5" r="239.5"></circle>
            <path d="M429.132,128.208 C409.524,94.612 382.927,68.014 349.334,48.408 C315.736,28.801 279.057,19 239.271,19 C199.49,19 162.799,28.804 129.208,48.408 C95.612,68.013 69.016,94.612 49.408,128.208 C29.803,161.803 20,198.489 20,238.265 C20,286.045 33.94,329.01 61.827,367.171 C89.711,405.335 125.733,431.743 169.89,446.398 C175.03,447.352 178.835,446.681 181.309,444.402 C183.784,442.12 185.02,439.262 185.02,435.84 C185.02,435.269 184.971,430.132 184.876,420.423 C184.778,410.714 184.732,402.244 184.732,395.017 L178.165,396.153 C173.978,396.92 168.696,397.245 162.319,397.153 C155.945,397.064 149.328,396.396 142.477,395.154 C135.623,393.923 129.248,391.068 123.347,386.595 C117.449,382.122 113.262,376.267 110.787,369.039 L107.932,362.469 C106.029,358.095 103.033,353.236 98.94,347.91 C94.847,342.579 90.708,338.965 86.521,337.062 L84.522,335.631 C83.19,334.68 81.954,333.533 80.811,332.202 C79.669,330.871 78.814,329.539 78.243,328.205 C77.671,326.87 78.145,325.775 79.67,324.916 C81.195,324.057 83.951,323.64 87.95,323.64 L93.658,324.493 C97.465,325.256 102.174,327.535 107.791,331.344 C113.405,335.15 118.02,340.098 121.637,346.186 C126.017,353.992 131.294,359.94 137.483,364.033 C143.667,368.126 149.902,370.169 156.182,370.169 C162.462,370.169 167.886,369.693 172.456,368.746 C177.021,367.794 181.304,366.363 185.303,364.461 C187.016,351.703 191.68,341.902 199.291,335.051 C188.443,333.911 178.69,332.194 170.027,329.911 C161.369,327.625 152.422,323.915 143.192,318.771 C133.957,313.634 126.296,307.255 120.207,299.645 C114.117,292.031 109.119,282.035 105.22,269.666 C101.319,257.292 99.368,243.018 99.368,226.84 C99.368,203.805 106.888,184.203 121.925,168.023 C114.881,150.705 115.546,131.291 123.922,109.783 C129.442,108.068 137.628,109.355 148.476,113.636 C159.326,117.919 167.27,121.588 172.316,124.63 C177.362,127.671 181.405,130.248 184.451,132.338 C202.156,127.391 220.427,124.917 239.269,124.917 C258.111,124.917 276.386,127.391 294.092,132.338 L304.941,125.489 C312.36,120.919 321.121,116.731 331.203,112.924 C341.291,109.119 349.005,108.071 354.337,109.786 C362.899,131.295 363.662,150.708 356.616,168.026 C371.652,184.206 379.175,203.813 379.175,226.843 C379.175,243.021 377.217,257.34 373.322,269.809 C369.422,282.28 364.381,292.266 358.197,299.788 C352.006,307.309 344.296,313.638 335.066,318.774 C325.834,323.914 316.884,327.624 308.226,329.91 C299.564,332.196 289.811,333.914 278.963,335.056 C288.857,343.618 293.805,357.133 293.805,375.595 L293.805,435.832 C293.805,439.254 294.995,442.111 297.377,444.394 C299.756,446.673 303.513,447.344 308.653,446.389 C352.816,431.736 388.838,405.327 416.721,367.163 C444.601,329.002 458.546,286.037 458.546,238.257 C458.536,198.486 448.728,161.803 429.132,128.208 L429.132,128.208 L429.132,128.208 Z" id="Shape" fill="#FFFFFF"></path>
        </g>
    </g>
</svg>