<?xml version="1.0" encoding="iso-8859-1"?>
<!-- Generator: Adobe Illustrator 19.0.0, SVG Export Plug-In . SVG Version: 6.00 Build 0)  -->
<svg version="1.1" id="Layer_1" xmlns="http://www.w3.org/2000/svg" xmlns:xlink="http://www.w3.org/1999/xlink" x="0px" y="0px"
	 viewBox="0 0 291.319 291.319" style="enable-background:new 0 0 291.319 291.319;" xml:space="preserve">
<g>
	<path style="fill:#0E76A8;" d="M145.659,0c80.45,0,145.66,65.219,145.66,145.66s-65.21,145.659-145.66,145.659S0,226.1,0,145.66
		S65.21,0,145.659,0z"/>
	<path style="fill:#FFFFFF;" d="M82.079,200.136h27.275v-90.91H82.079V200.136z M188.338,106.077
		c-13.237,0-25.081,4.834-33.483,15.504v-12.654H127.48v91.21h27.375v-49.324c0-10.424,9.55-20.593,21.512-20.593
		s14.912,10.169,14.912,20.338v49.57h27.275v-51.6C218.553,112.686,201.584,106.077,188.338,106.077z M95.589,100.141
		c7.538,0,13.656-6.118,13.656-13.656S103.127,72.83,95.589,72.83s-13.656,6.118-13.656,13.656S88.051,100.141,95.589,100.141z"/>
</g>
<g>
</g>
<g>
</g>
<g>
</g>
<g>
</g>
<g>
</g>
<g>
</g>
<g>
</g>
<g>
</g>
<g>
</g>
<g>
</g>
<g>
</g>
<g>
</g>
<g>
</g>
<g>
</g>
<g>
</g>
</svg>
