<?xml version="1.0" encoding="UTF-8" standalone="no"?>
<svg width="694px" height="694px" viewBox="0 0 694 694" version="1.1" xmlns="http://www.w3.org/2000/svg" xmlns:xlink="http://www.w3.org/1999/xlink">
    <!-- Generator: Sketch 3.7.2 (28276) - http://www.bohemiancoding.com/sketch -->
    <title>Group 2</title>
    <desc>Created with Sketch.</desc>
    <defs></defs>
    <g id="Page-1" stroke="none" stroke-width="1" fill="none" fill-rule="evenodd">
        <g id="Group-2">
            <circle id="Oval-1" fill="#FFFFFF" cx="347" cy="347" r="347"></circle>
            <g id="medium" transform="translate(150.000000, 180.000000)">
                <g id="Group">
                    <path d="M384.045,334.079 L262.84,275.812 L261.927,11.68 C261.906,5.514 268.343,1.451 273.9,4.123 L388.808,59.379 C391.701,60.77 393.541,63.697 393.541,66.907 L393.541,328.108 C393.54,332.989 388.443,336.194 384.045,334.079 L384.045,334.079 Z" id="Shape" fill="#00FD8D"></path>
                    <path d="M262.84,275.812 L131.66,212.74 L257.948,4.818 C260.179,1.145 264.834,-0.236 268.707,1.626 L385.221,57.655 C389.675,59.797 391.306,65.316 388.731,69.534 L262.84,275.812 L262.84,275.812 Z" id="Shape" fill="#00E470"></path>
                    <path d="M262.84,275.812 L131.66,212.74 L11.421,16.942 C8.071,11.487 13.9,5.028 19.669,7.802 L131.66,61.655 L262.84,275.812 L262.84,275.812 Z" id="Shape" fill="#00C967"></path>
                    <path d="M122.164,334.078 L3.754,277.138 C1.459,276.034 0,273.713 0,271.167 L0,8.548 C0,3.822 4.937,0.717 9.197,2.766 L131.66,61.655 L131.66,328.107 C131.66,332.988 126.562,336.193 122.164,334.078 L122.164,334.078 Z" id="Shape" fill="#00AD6C"></path>
                </g>
            </g>
        </g>
    </g>
</svg>