<?xml version="1.0" encoding="UTF-8" standalone="no"?>
<svg
   xmlns:dc="http://purl.org/dc/elements/1.1/"
   xmlns:cc="http://creativecommons.org/ns#"
   xmlns:rdf="http://www.w3.org/1999/02/22-rdf-syntax-ns#"
   xmlns:svg="http://www.w3.org/2000/svg"
   xmlns="http://www.w3.org/2000/svg"
   xmlns:sodipodi="http://sodipodi.sourceforge.net/DTD/sodipodi-0.dtd"
   xmlns:inkscape="http://www.inkscape.org/namespaces/inkscape"
   width="44"
   height="40.000011"
   viewBox="0 0 44 40.000011"
   version="1.1"
   id="svg8"
   sodipodi:docname="one_signal.svg"
   style="fill:none"
   inkscape:version="0.92.3 (2405546, 2018-03-11)">
  <metadata
     id="metadata14">
    <rdf:RDF>
      <cc:Work
         rdf:about="">
        <dc:format>image/svg+xml</dc:format>
        <dc:type
           rdf:resource="http://purl.org/dc/dcmitype/StillImage" />
      </cc:Work>
    </rdf:RDF>
  </metadata>
  <defs
     id="defs12" />
  <sodipodi:namedview
     pagecolor="#ffffff"
     bordercolor="#666666"
     borderopacity="1"
     objecttolerance="10"
     gridtolerance="10"
     guidetolerance="10"
     inkscape:pageopacity="0"
     inkscape:pageshadow="2"
     inkscape:window-width="1595"
     inkscape:window-height="913"
     id="namedview10"
     showgrid="false"
     inkscape:zoom="2.8837209"
     inkscape:cx="19.896169"
     inkscape:cy="19.6255"
     inkscape:window-x="0"
     inkscape:window-y="0"
     inkscape:window-maximized="0"
     inkscape:current-layer="svg8" />
  <path
     d="m 26.1622,33.389412 c 4.8412,-1.7 8.3243,-6.26 8.3243,-11.6247 0,-6.8118 -5.6011,-12.35297 -12.4865,-12.35297 -6.8854,0 -12.48647,5.54117 -12.48647,12.35297 0,5.7964 4.06227,10.6564 9.51347,11.98 v 1.2117 c -6.1207,-1.3435 -10.70266,-6.7317 -10.70266,-13.1917 0,-7.4718 6.12316,-13.52944 13.67566,-13.52944 7.5526,0 13.6757,6.05764 13.6757,13.52944 0,6.0341 -3.9981,11.1364 -9.5135,12.8788 z m -4.1621,-18.0952 c -3.6069,0 -6.5406,2.9023 -6.5406,6.4705 0,2.5059 1.4568,4.6671 3.5676,5.74 v 1.3083 c -2.791,-1.1518 -4.7568,-3.8694 -4.7568,-7.0483 0,-4.2235 3.4606,-7.647 7.7298,-7.647 4.2691,0 7.7297,3.4235 7.7297,7.647 0,2.7036 -1.427,5.0683 -3.5676,6.4271 v -1.4635 c 1.4461,-1.1871 2.3784,-2.9636 2.3784,-4.9636 0,-3.5682 -2.9337,-6.4705 -6.5405,-6.4705 z M 0,21.764712 c 0,7.6423 3.98854,14.3518 10.0118,18.2353 0.3639,-0.2353 0.7373,-0.4565 1.1143,-0.6706 0.2699,-0.1518 0.5422,-0.2965 0.8193,-0.4376 0.3306,-0.1683 0.666,-0.3283 1.0061,-0.48 0.3389,-0.1518 0.6814,-0.293 1.0298,-0.4283 0.283,-0.1094 0.5684,-0.2117 0.8574,-0.3106 0.4031,-0.1376 0.8122,-0.2635 1.2272,-0.3788 0.3116,-0.0859 0.6256,-0.1671 0.9431,-0.24 0.3211,-0.0741 0.6433,-0.1435 0.9704,-0.2035 0.3472,-0.0636 0.6956,-0.1235 1.0476,-0.1718 0.3948,-0.04 0.7885,-0.087 1.1892,-0.1188 v -1.3941 -1.1894 -4.7777 -1.2141 -4.4553 H 19.027 v -2.3529 h 1.1892 3.5676 1.1892 v 6.3447 1.3023 4.9259 1.2141 1.7141 c 3.2916,0.4553 6.3514,1.6047 9.0128,3.3212 C 40.0115,36.116512 44,29.407012 44,21.764712 44,9.744702 34.1499,0 22,0 9.85005,0 0,9.744702 0,21.764712 Z"
     id="path6"
     inkscape:connector-curvature="0"
     style="clip-rule:evenodd;fill:#e54b4d;fill-rule:evenodd" />
</svg>
