<svg fill="none" viewBox="0 0 2641.7 199" xmlns="http://www.w3.org/2000/svg"><path d="m47.4 53 42 91h-84zm0 11.3-34.6 75h69.1zm69.8 52.7v27h-4.7v-89h35.8c6 0 11.5 1.2 16.6 3.8a29.6 29.6 0 0 1 16.6 27.1 30.5 30.5 0 0 1 -16.9 27.7c-4.5 2.3-10 3.4-16.3 3.4h-31zm0-57.3v52.6h31.1c5.5 0 10-.8 13.5-2.6a25.8 25.8 0 0 0 15-23.8c0-5-1.4-9.8-4.1-14a25.5 25.5 0 0 0 -11-9.6c-3.5-1.8-8-2.6-13.3-2.6zm94.8 57.3v27h-4.8v-89h35.9c6 0 11.5 1.2 16.5 3.8a29.6 29.6 0 0 1 16.6 27.1 30.5 30.5 0 0 1 -16.9 27.7c-4.5 2.3-10 3.4-16.2 3.4zm0-57.3v52.6h31c5.5 0 10-.8 13.5-2.6a25.8 25.8 0 0 0 14.9-23.8 25.5 25.5 0 0 0 -15.1-23.7 29.9 29.9 0 0 0 -13.2-2.5zm208 84.3h-23.3v-89h37.2c6.2 0 11.6 1.1 16.2 3.4a30.8 30.8 0 0 1 16.9 27.6 30.5 30.5 0 0 1 -17 27.7 35 35 0 0 1 -16 3.3h-14zm120.3-86a28.6 28.6 0 0 1 16.5 26.1 28.8 28.8 0 0 1 -21.6 28.3l22.6 31.6h-5.6l-21.9-30.7-4 .2h-32.3v30.5h-4.8v-89h34c3.7 0 7 .2 9.6.7 2.7.4 5.2 1.2 7.4 2.2zm-46.3 50.6h33.4a25 25 0 0 0 24.6-24.5 24.2 24.2 0 0 0 -14.8-22.4c-3.3-1.3-8-2-14-2h-29.2v49zm92.9-53.6h57.7v4.7h-26.6v79.6h26.6v4.7h-57.6v-4.7h26.5v-79.6h-26.5v-4.7zm84.2 0h5.1l34 82.8 34.2-82.8h5l-36.6 89h-5l-36.6-89zm95 89 36.6-89h5l36.6 89h-5.1l-12-29.4h-44l-12.1 29.4zm39-82.9-20 48.9h40.1l-20-48.9zm64.1 48.9a32 32 0 0 0 31.5 31.2c5.8 0 11-1.1 15.8-3.4a26.5 26.5 0 0 0 15.2-23.5h4.6a29 29 0 0 1 -4.6 16.1 32.5 32.5 0 0 1 -12.9 11.4 39.2 39.2 0 0 1 -18 4.2 36.4 36.4 0 0 1 -36.1-36v-21a36 36 0 0 1 35.8-36c6.6 0 12.5 1.4 18 4.2a33 33 0 0 1 12.8 11.4 28.8 28.8 0 0 1 4.8 16h-4.6a25 25 0 0 0 -4.3-13.8c-2.7-4-6.4-7.3-11-9.6a35 35 0 0 0 -15.7-3.4 31.8 31.8 0 0 0 -31.2 31.2v21zm88.2-55h5.7l31.6 47.6 31.3-47.6h5.7l-34.7 52.6v36.4h-4.7v-36.4zm220.3 89h-23.3v-89h37.3a35 35 0 0 1 16.1 3.4 30.8 30.8 0 0 1 17 27.5 30.5 30.5 0 0 1 -16.9 27.7 35 35 0 0 1 -16.2 3.4h-14zm101-91a36.6 36.6 0 0 1 36.7 36.7v19.5a36.6 36.6 0 0 1 -36.7 36.7 36.6 36.6 0 0 1 -36.7-36.7v-19.4a36.6 36.6 0 0 1 36.7-36.7zm-32 56.2a31.8 31.8 0 0 0 32 32 31.4 31.4 0 0 0 27.7-15.9c2.9-5 4.3-10.3 4.3-16v-19.6a31.3 31.3 0 0 0 -16-27.7 30.5 30.5 0 0 0 -16-4.3 31.7 31.7 0 0 0 -32 32v19.4zm166 34.8h-66.7v-89h4.8v84.3h62v4.7zm26.7-89h57.7v4.7h-26.6v79.6h26.6v4.7h-57.7v-4.7h26.5v-79.6h-26.5zm92.9 55a32 32 0 0 0 31.5 31.2c5.8 0 11-1.1 15.7-3.4a26.5 26.5 0 0 0 15.3-23.5h4.6a29 29 0 0 1 -4.7 16.1 32.5 32.5 0 0 1 -12.8 11.4 39.2 39.2 0 0 1 -18.1 4.2 36.4 36.4 0 0 1 -36.1-36v-21a36 36 0 0 1 35.8-36c6.6 0 12.6 1.4 18 4.2a33 33 0 0 1 12.9 11.4 28.8 28.8 0 0 1 4.7 16h-4.6c0-5-1.5-9.7-4.2-13.8-2.8-4-6.4-7.3-11.1-9.6a35 35 0 0 0 -15.7-3.4 31.8 31.8 0 0 0 -31.2 31.2zm88.2-55h5.6l31.6 47.6 31.4-47.6h5.6l-34.7 52.6v36.4h-4.7v-36.4zm225.9 2.8a32.2 32.2 0 0 0 -32 32v16.9c0 6 .9 11 2.6 15a32 32 0 0 0 27.2 19.4v-41.6h39v8.4a41 41 0 0 1 -2.4 14.6 36.5 36.5 0 0 1 -34.4 23.4 35.9 35.9 0 0 1 -33.7-22.2 43 43 0 0 1 -3-17v-17a36.6 36.6 0 0 1 36.7-36.7c5.5 0 10.6 1 15.2 2.8s8.6 4.5 11.8 8c2.7 2.9 4.8 6.1 6.5 9.7 1.6 3.6 2.5 7.2 2.5 10.9h-4.6c-.1-3.2-1-6.3-2.4-9.3a34.6 34.6 0 0 0 -5.7-8.4c-5.7-6-13.5-9-23.3-9zm32.1 50.1v-3.8h-29.7v37a32 32 0 0 0 16.6-5.8c5-3.5 8.5-8 10.8-13.8 1.6-4 2.3-8.5 2.3-13.6zm32.5 36.1v-89h62.8v4.7h-58v36h50.4v4.8h-50.4v38.8h58v4.7zm95.4 0h-4.7v-89h5l62.2 60.4v-60.4h4.7v89h-4.7v-22l-62.5-60.9v83zm94 0v-89h62.8v4.7h-58v36h50.5v4.8h-50.5v38.8h58v4.7h-62.7zm144.8-86a28.6 28.6 0 0 1 16.6 26.1c0 6.7-2 12.6-6.1 17.9-4 5.2-9.3 8.7-15.6 10.4l22.7 31.6h-5.7l-21.8-30.7-4.1.2h-32.2v30.5h-4.7v-89h34c3.7 0 6.9.2 9.6.7a27 27 0 0 1 7.3 2.2zm-46.2 50.7h33.4a25 25 0 0 0 24.6-24.6 24.2 24.2 0 0 0 -14.7-22.4c-3.3-1.3-8-2-14-2h-29.3zm82.6 35.3 36.6-89h5l36.6 89h-5.1l-12-29.4h-44l-12.1 29.4zm39-82.9-20 48.9h40.1l-20-48.9zm58.8-6.1h72v4.7h-33.7v84.3h-4.6v-84.3h-33.7zm130.7-2a36.6 36.6 0 0 1 36.7 36.7v19.5a36.6 36.6 0 0 1 -36.7 36.7 36.6 36.6 0 0 1 -36.7-36.7v-19.4a36.6 36.6 0 0 1 36.6-36.8zm-32 56.2a31.8 31.8 0 0 0 32 32 31.4 31.4 0 0 0 27.7-15.9c2.8-5 4.3-10.3 4.3-16v-19.6a31.3 31.3 0 0 0 -16-27.7 30.7 30.7 0 0 0 -16-4.3 31.7 31.7 0 0 0 -32 32v19.4zm145.9-51.2a28.8 28.8 0 0 1 16.5 26.2 28.8 28.8 0 0 1 -21.6 28.3l22.7 31.6h-5.7l-21.9-30.7-4 .2h-32.2v30.4h-4.7v-89h33.9c3.8 0 7 .2 9.7.7a27 27 0 0 1 7.3 2.2zm-46.2 50.8h33.4a25 25 0 0 0 24.6-24.6 24.2 24.2 0 0 0 -14.7-22.4c-3.3-1.3-8-2-14.1-2h-29.2z" fill="#000"/></svg>