<svg xmlns="http://www.w3.org/2000/svg" xmlns:xlink="http://www.w3.org/1999/xlink" data-name="Layer 1" viewBox="0 0 420.1 204.9">
  <defs>
    <linearGradient id="a" x1="-65" x2="262.9" y1="72.2" y2="255.7" gradientUnits="userSpaceOnUse">
      <stop offset="0" stop-opacity="0"/>
      <stop offset="1"/>
    </linearGradient>
    <linearGradient xlink:href="#a" id="b" x1="217.2" x2="115.3" y1="164.8" y2="227.4"/>
    <linearGradient xlink:href="#a" id="c" x1="425.4" x2="137.4" y1="249.2" y2="3.7"/>
    <linearGradient xlink:href="#a" id="d" x1="295.9" x2="-18.2" y1="167.2" y2="154.5"/>
    <linearGradient xlink:href="#a" id="e" x1="259.2" x2="169" y1="105.4" y2="201.9"/>
    <linearGradient xlink:href="#a" id="f" x1="246.4" x2="233.2" y1="180.3" y2="118"/>
    <linearGradient xlink:href="#a" id="g" x1="206.6" x2="209.2" y1="128.4" y2="127.5"/>
    <linearGradient xlink:href="#a" id="h" x1="207.3" x2="222.6" y1="138.4" y2="150.9"/>
  </defs>
  <path fill="#578dfa" d="M24 232a62 62 0 0 1-6-92c9-10 21-16 31-24 18-13 31-33 50-44 24-12 53-9 78-3s52 16 79 13c16-1 31-6 47-9s33-2 46 7c19 14 23 41 39 58 8 8 18 14 24 24 11 14 11 37 0 51-15 19-40 22-61 32-12 6-22 14-34 19-25 10-54 3-80-5s-52-18-79-14c-25 4-47 19-73 22-11 1-25-1-32-12-8-10-18-15-29-23Z" opacity=".2" style="isolation:isolate" transform="translate(0 -64)"/>
  <path fill="#578dfa" d="m31 111 14-17 33-38 14-18h31a217 217 0 0 0-1 25v49h4a106 106 0 0 0 15-1v27a121 121 0 0 0-15 0h-4v7a105 105 0 0 0 1 19H92a131 131 0 0 0 1-19v-8H50l-19 1Zm62-16 1-22-9 13-22 26h30Z"/>
  <path fill="url(#a)" d="m31 175 15-17 32-38 14-18h31a217 217 0 0 0-1 25v49h5a106 106 0 0 0 15-1v27a121 121 0 0 0-15-1h-5v8a105 105 0 0 0 1 18H92a131 131 0 0 0 1-18v-8H51l-20 1Zm63-16 1-22-10 12-22 27h31Z" transform="translate(0 -64)"/>
  <path fill="#578dfa" d="m199 73 9 3 8 1c5 2 8 8 8 14l-2 17c-3 15-8 30-17 42l-3 1a3 3 0 0 1-1-1 29 29 0 0 1-5-4c-3-3-4-7-5-11-4-10-10-17-12-28-1-12 6-36 20-34Z"/>
  <path fill="url(#b)" d="M189 144a5 5 0 0 0-3 1 10 10 0 0 0-5 7 25 25 0 0 0 0 8 111 111 0 0 0 4 23c1 3-1 8 1 10 1 1 0 10 2 11 4 3 13 2 17 5 6 4 5-7 4-11-1-5-8-4-14-21-7-21-4-32-6-33Z" transform="translate(0 -64)"/>
  <path fill="#578dfa" d="m264 110 14-16 33-39a151 151 0 0 0 14-18h31a217 217 0 0 0-1 25v50h4a107 107 0 0 0 15-2v28a119 119 0 0 0-14-1h-5v7a105 105 0 0 0 1 19h-31a131 131 0 0 0 1-19v-7h-62Zm62-16 1-21-9 12-22 27h31Z"/>
  <path fill="url(#c)" d="m264 174 15-16 33-39a151 151 0 0 0 14-18h31a217 217 0 0 0-2 25v49h5a107 107 0 0 0 15-1v28a119 119 0 0 0-15-1h-5v7a105 105 0 0 0 2 19h-32a131 131 0 0 0 2-19v-7h-63Zm63-16 1-22-10 13-22 27h31Z" transform="translate(0 -64)"/>
  <path fill="#578dfa" d="M166 151a48 48 0 0 1-11-17 100 100 0 0 1-6-34c0-16 4-32 10-42 9-15 25-24 44-24 14 0 27 5 37 14a48 48 0 0 1 11 17 101 101 0 0 1 5 35c0 15-3 32-9 42-9 15-25 23-44 23-15 0-28-5-37-14Zm14-52c0 27 8 41 23 41s22-14 22-41c0-26-8-39-22-39s-23 14-23 39Z"/>
  <path fill="url(#d)" d="M167 215a48 48 0 0 1-11-17 100 100 0 0 1-6-34c0-16 3-33 9-42 9-16 25-24 44-24 15 0 28 5 37 14a48 48 0 0 1 11 17 101 101 0 0 1 6 34c0 16-4 33-10 42-9 16-25 24-44 24-15 0-27-5-36-14Zm14-53c0 27 7 41 22 41s23-13 23-40c0-26-8-40-23-40-14 0-22 15-22 39Z" transform="translate(0 -64)"/>
  <path fill="#578dfa" d="m34 110 15-16 32-39a151 151 0 0 0 14-18h31a217 217 0 0 0-1 25v50h5a107 107 0 0 0 15-2v28a119 119 0 0 0-15-1h-5v7a105 105 0 0 0 2 19H95a131 131 0 0 0 2-19v-7H34Zm63-16 1-21-10 12-22 27h31Zm73 58a48 48 0 0 1-11-17 100 100 0 0 1-6-35c0-15 4-32 9-41 9-16 25-24 44-24 15 0 28 5 37 14a47 47 0 0 1 11 16 100 100 0 0 1 6 35c0 16-4 33-10 42-9 15-25 24-44 24-15 0-27-5-36-14Zm14-53c0 27 7 41 22 41s23-13 23-40c0-26-8-40-23-40-14 0-22 15-22 39Z"/>
  <path fill="url(#e)" d="M231 110a7 7 0 0 1 3 8 14 14 0 0 1 10 5 19 19 0 0 1 3 10 51 51 0 0 1 0 10 11 11 0 0 1-1 4 8 8 0 0 1-5 4 22 22 0 0 1-6 0h-6a1 1 0 0 1 0-1l-2-5a34 34 0 0 0-5-13 5 5 0 0 1-1-2 5 5 0 0 1 0-3 39 39 0 0 0 2-5 56 56 0 0 1 2-6 9 9 0 0 1 4-5" transform="translate(0 -64)"/>
  <path fill="url(#f)" d="M229 173s19 2 28-10c3-4-5-26-5-26l-9 16-14 3Z" transform="translate(0 -64)"/>
  <path fill="#578dfa" d="m268 110 14-16 33-39 14-18h31a217 217 0 0 0-1 25v50h4a107 107 0 0 0 15-2v28a119 119 0 0 0-15-1h-4v7a105 105 0 0 0 1 19h-31a131 131 0 0 0 1-19v-7h-62Zm62-16 1-21-9 12-22 27h30Z"/>
  <path fill="#f7af87" d="M183 75a10 10 0 0 0-1 1 3 3 0 0 0-1 1 1 1 0 0 0-1 1 2 2 0 0 0 2 1l4-1c1 0 2-1 1-2l-4-1Zm4 3-5 1a3 3 0 0 0-1 1 1 1 0 0 0 1 2 3 3 0 0 0 1 0h2a5 5 0 0 0 2-1c1-1 2-2 0-3Z"/>
  <path fill="#f7af87" d="M184 82a11 11 0 0 0-2 0 3 3 0 0 0-1 1 1 1 0 0 0 0 2 2 2 0 0 0 2 0h3c1 0 3-2 2-3h-4Z"/>
  <path fill="#f7af87" d="m188 84-5 2a3 3 0 0 0-1 1 1 1 0 0 0 1 2 3 3 0 0 0 1 0l2-1a5 5 0 0 0 2-1v-3Zm53-28a20 20 0 0 0-10-2 4 4 0 0 0-1 0 1 1 0 0 0-1 1 2 2 0 0 0 1 2 17 17 0 0 0 4 2 4 4 0 0 1 1 1 1 1 0 0 1 0 1l-1 1c-1 1 0 2 1 2a4 4 0 0 0 2-1 4 4 0 0 1 2 0 4 4 0 0 1 1 1c2 1 7 1 6-2 0-3-3-5-5-6Z"/>
  <path fill="#578dfa" d="m216 78 25 9c2 0-1-23-1-23l7-3s17 33 3 38a40 40 0 0 1-26 0Z"/>
  <path fill="#f7af87" d="M228 65a15 15 0 0 1-1 6 10 10 0 0 1-8 5 22 22 0 0 0-3 0 3 3 0 0 0-2 2c-1 2-2 4-5 4a4 4 0 0 1-1-1 8 8 0 0 1-2-1 14 14 0 0 1-2-3 4 4 0 0 1-1-2 5 5 0 0 1 0-2l3-12a18 18 0 0 1 8-10c3-2 8-2 11 1a11 11 0 0 1 3 6 29 29 0 0 1 0 7Z"/>
  <path fill="#606060" d="M204 60v-5a8 8 0 0 1 3-5 4 4 0 0 1 1-1h2a16 16 0 0 0 3-2 16 16 0 0 1 5-2 23 23 0 0 1 4 0h6a3 3 0 0 1 2 0 3 3 0 0 1 1 1 7 7 0 0 1 0 5 20 20 0 0 1-2 4 7 7 0 0 1-1 2l-2-3-6 2-6-1a4 4 0 0 0-3 1 5 5 0 0 0-1 2 50 50 0 0 0-1 5l-2-2a1 1 0 0 0-1 1v5a1 1 0 0 1 1 1 1 1 0 0 1 0 1 2 2 0 0 1-2 0l-1-2v-7Z"/>
  <path fill="url(#g)" d="M208 128a2 2 0 0 1 0-1 2 2 0 0 0-1 0 1 1 0 0 0 0-1h-1a5 5 0 0 0 1 4 1 1 0 0 0 1 0 1 1 0 0 0 1-1l-1-1Z" transform="translate(0 -64)"/>
  <path fill="url(#h)" d="M216 140a3 3 0 0 0-2 2c-1 2-2 4-5 3a4 4 0 0 1-1 0 2 2 0 0 1 0-1 3 3 0 0 1 0-2 5 5 0 0 1 4-3 13 13 0 0 1 2 1h2Z" transform="translate(0 -64)"/>
</svg>
