<svg xmlns="http://www.w3.org/2000/svg" xml:space="preserve" id="Layer_1" x="0" y="0" class="show_show__wrapper__graphic__5Waiy" version="1.1" viewBox="0 0 500 500"><style>.st0{fill:#fff}.st1{fill:#231f20}.st3{fill:#d1d3d4}</style><g id="Laptop"><path d="M120.5 168.1h269.1c11.1 0 20.1 9 20.1 20.1v164.3H100.4V188.3c0-11.1 9-20.2 20.1-20.2" class="st0"/><path d="M409.7 353.2H100.4c-.4 0-.6-.3-.6-.6V188.3c0-11.5 9.3-20.8 20.8-20.8h269.1c11.5 0 20.8 9.3 20.8 20.8v164.3c-.1.4-.4.6-.8.6M101 352h308.1V188.3c0-10.8-8.7-19.5-19.5-19.5H120.5c-10.8 0-19.5 8.7-19.5 19.5z" class="st1"/><path d="M68.2 352.6h373.7c0 12.3-10 22.4-22.3 22.4h-329c-12.4 0-22.4-10-22.4-22.4" class="st0"/><path d="M419.5 375.6h-329c-12.7 0-23-10.3-23-23 0-.4.3-.6.6-.6h373.7c.4 0 .6.3.6.6.2 12.7-10.1 23-22.9 23M68.8 353.2c.4 11.7 10 21.1 21.7 21.1h329c11.7 0 21.3-9.3 21.7-21.1z" class="st1"/><path d="M224.8 352.6h60.6v5.6h-60.6z" class="st1"/></g><g id="Screen"><path d="M119.7 184.7h270.7v167.9H119.7z" style="fill:#68e1fd"/><circle cx="132.4" cy="196.9" r="4.5" class="st1"/><circle cx="147.7" cy="196.9" r="4.5" class="st0"/><circle cx="163" cy="196.9" r="4.5" class="st0"/><path d="M390.2 208.7H119.9c-.4 0-.7-.3-.7-.7s.3-.7.7-.7h270.3c.4 0 .7.3.7.7s-.3.7-.7.7" class="st0"/></g><g id="Emoji"><path d="M206.2 266c-.6 0-1.2-.2-1.6-.7-.9-.9-.9-2.4 0-3.3l17.6-17.6c.9-.9 2.4-.8 3.3.1.8.9.8 2.3 0 3.2l-17.6 17.6c-.5.5-1.1.8-1.7.7" class="st0"/><path d="M223.8 266c-.6 0-1.2-.2-1.6-.7l-17.6-17.6c-.9-.9-.8-2.4.1-3.3.9-.8 2.3-.8 3.2 0l17.6 17.6c.9.9.9 2.4 0 3.3-.5.5-1.1.8-1.7.7m62.5 0c-.6 0-1.2-.2-1.6-.7-.9-.9-.9-2.4 0-3.3l17.6-17.6c.9-.9 2.4-.8 3.3.1.8.9.8 2.3 0 3.2L288 265.4c-.4.4-1.1.7-1.7.6" class="st0"/><path d="M303.9 266c-.6 0-1.2-.2-1.6-.7l-17.6-17.6c-.9-.9-.9-2.4 0-3.3s2.4-.9 3.3 0l17.5 17.6c.9.9.9 2.4 0 3.3-.4.5-1 .7-1.6.7m-128.7 39.6c-1.6 0-2.9-1.3-2.9-2.8 0-1.2.7-2.2 1.8-2.6 51.7-22 110.1-22 161.9 0 1.4.7 2 2.4 1.4 3.8s-2.2 2-3.6 1.5c-50.3-21.4-107.1-21.4-157.4 0-.4 0-.8.1-1.2.1" class="st0"/><path d="M104.7 168.8c-.2 0-.3-.1-.4-.1-.3-.2-.4-.7-.2-1 2.5-3.4 5.6-8.4 3.3-12.4-.1-.1-.2-.2-.2-.4q-3.9 4.65-9 7.8c-1.7 1.1-4.2 2.1-6.2 1.7-.9-.2-1.8-.8-2.3-1.6-.6-1.2-.8-2.6-.4-3.8.1-.5.3-.9.4-1.3-2.9 2.9-6.3 5.5-9.9 7.5-.8.5-1.7.8-2.6.7-1.6-.3-2.7-1.6-2.9-3.2-.1-1.4.2-2.7.8-3.9 4.7-10.7 15.8-18.4 27.4-19.3 1.1-2.6 1.2-5.5.5-8.2-.8-2.7-3-4.8-5.7-5.5-2.4-.5-5.1.5-7.3 1.5-12.1 5.5-21.9 14.9-28 26.7-.5.7-.7 1.6-.7 2.5.1.4.3.8.6 1 .2.1.4.2.6.2.4-.1.7.2.8.6s-.2.7-.6.8c-.6.1-1.2 0-1.7-.4-.6-.5-1.1-1.2-1.1-2q0-1.8.9-3.3c6.2-12.1 16.3-21.7 28.7-27.3 2.4-1.1 5.3-2.2 8.2-1.6 3.2.8 5.8 3.3 6.7 6.5.8 2.8.7 5.8-.3 8.6h2.8c.9 0 1.8.2 2.6.7 1.8 1.1 1.9 3.5 1.8 4.9-.3 3.2-1.4 6.2-3.3 8.7.2.3.4.5.6.8 2.7 4.6-.6 10.1-3.4 13.9-.1.1-.3.2-.5.2m-2.7-27.7c-10.9 1.2-21.1 8.4-25.5 18.4-.5 1-.8 2.1-.7 3.2.1.9.7 1.7 1.6 1.9.6 0 1.3-.2 1.8-.6 5.8-3.1 10.4-8 14.8-12.6 2.9-3 6.1-6.3 8-10.3m-1.2 11.1c-.7 0-1.4.1-2.1.2-3.9.8-7.2 3.6-8 7-.3.9-.2 1.9.2 2.8.3.5.8.8 1.4.9 1.6.4 3.8-.6 5.1-1.5 3.3-2.1 6.3-4.7 8.8-7.7-1.5-1.2-3.4-1.8-5.4-1.7m0-1.4c2.2-.1 4.4.6 6.2 2 1.6-2.3 2.6-5 2.9-7.8.1-.8.1-2.8-1.2-3.6-.6-.3-1.3-.5-1.9-.4-1.1-.1-2.2-.1-3.2 0-1.9 4.4-5.2 8-8.3 11.2 1-.5 2-.9 3.1-1.1q1.2-.3 2.4-.3" class="st3"/></g><g id="Page_not_Found_Text"><path d="M49.4 256.1h87.8c5.5 0 9.9 4.5 9.9 9.9v47.1c0 5.5-4.5 9.9-9.9 9.9H49.4c-5.5 0-9.9-4.5-9.9-9.9V266c-.1-5.4 4.4-9.9 9.9-9.9" class="st0"/><path d="M137.1 323.8H49.4c-5.9 0-10.6-4.8-10.6-10.6v-47.1c0-5.9 4.8-10.6 10.6-10.6h87.8c5.9 0 10.6 4.8 10.6 10.6v47.1c0 5.9-4.8 10.6-10.7 10.6m-87.7-67c-5.1 0-9.2 4.1-9.2 9.2v47.1c0 5.1 4.1 9.2 9.2 9.2h87.8c5.1 0 9.2-4.1 9.2-9.2V266c0-5.1-4.1-9.2-9.2-9.2z" class="st3"/><path d="M74.1 273.5h4.5c.7 0 1.4.1 2 .3.5.2.9.4 1.3.8.3.3.5.7.6 1.1s.2.8.2 1.1c0 .4 0 .8-.2 1.2-.1.4-.3.8-.6 1.1-.4.3-.8.6-1.3.8-.6.2-1.3.3-2 .3h-2.8v5.2h-1.7zm1.7 5.3h2.3c.3 0 .7 0 1-.1q.45 0 .9-.3.45-.15.6-.6c.2-.3.2-.7.2-1s-.1-.7-.2-1l-.6-.6-.9-.3c-.3 0-.7-.1-1-.1h-2.3zm8.6-.4c.5-.4 1-.7 1.6-.9q.9-.3 1.8-.3c.5 0 1.1.1 1.6.2.4.1.8.3 1.1.6.3.2.5.5.7.9.1.3.2.7.2 1v4.9c0 .3 0 .5.1.7H90v-1.2c-.3.5-.8.9-1.3 1.1s-1.1.3-1.7.3c-.4 0-.8 0-1.1-.1-.4-.1-.7-.2-1-.5-.3-.2-.5-.5-.6-.8-.2-.3-.2-.7-.2-1 0-.5.1-.9.4-1.3s.6-.7 1-.9c.5-.2 1-.4 1.5-.5.6-.1 1.2-.1 1.8-.1H90v-.3c0-.2 0-.4-.1-.6s-.2-.4-.4-.5c-.2-.2-.4-.3-.6-.4-.3-.1-.6-.2-.9-.1-.3 0-.6 0-.8.1s-.4.1-.6.2-.4.2-.5.3l-.4.3zm4.6 3.2c-.4 0-.8 0-1.2.1-.4 0-.7.1-1.1.2-.3.1-.6.3-.8.5s-.3.5-.3.8c0 .4.2.8.5 1 .4.2.9.3 1.3.3s.8-.1 1.1-.2.5-.3.8-.5c.2-.2.3-.5.4-.8s.1-.5.1-.8v-.5zm13.4 3.7c0 .6-.1 1.1-.4 1.7-.2.5-.6.9-1 1.3q-.6.6-1.5.9c-.6.2-1.3.3-1.9.3-.8 0-1.5-.1-2.2-.3s-1.3-.6-1.9-1.1l1.1-1.3c.4.4.9.8 1.4 1s1.1.3 1.7.3c.5 0 1-.1 1.5-.2.4-.1.7-.4.9-.6.2-.3.4-.6.5-.9s.1-.7.1-1v-1.2c-.3.5-.8.8-1.3 1.1-.5.2-1.1.3-1.7.3q-.9 0-1.8-.3c-.5-.2-1-.5-1.4-.9s-.7-.8-.9-1.3-.3-1.1-.3-1.6c0-.6.1-1.1.3-1.6s.5-1 .9-1.3c.4-.4.9-.7 1.4-.9q.9-.3 1.8-.3c.6 0 1.2.1 1.7.4.5.2 1 .6 1.3 1v-1.1h1.6zm-4.5-6.7c-.4 0-.8.1-1.2.2q-.45.15-.9.6-.3.3-.6.9c-.1.4-.2.7-.2 1.1 0 .7.2 1.4.8 1.9 1.2 1 2.9 1 4.1 0 .5-.5.8-1.2.8-1.9 0-.4-.1-.8-.2-1.1q-.15-.45-.6-.9l-.9-.6c-.3-.1-.7-.2-1.1-.2m8.2 3.4c0 .3.1.7.2 1 .2.3.4.5.6.7.3.2.6.4.9.5.4.1.7.2 1.1.2.5 0 .9-.1 1.3-.3s.7-.5 1-.9l1.2.9c-.9 1.1-2.3 1.7-3.8 1.6q-.9 0-1.8-.3c-1-.4-1.9-1.2-2.3-2.2-.2-.5-.3-1.1-.3-1.6 0-.6.1-1.1.3-1.7.2-.5.5-1 .9-1.3.4-.4.9-.7 1.4-.9q.9-.3 1.8-.3c.7 0 1.3.1 1.9.4.5.2.9.6 1.3 1 .3.4.6.9.7 1.4s.2 1 .2 1.5v.5h-6.6zm5.1-1.2c0-.3-.1-.6-.2-.9s-.3-.5-.5-.7-.5-.4-.8-.5-.7-.2-1.1-.2-.8.1-1.1.2-.6.3-.8.5-.4.5-.5.8-.2.5-.2.8zm-61.1 12.9h2.3l7.1 9.8v-9.8h1.8v11.9H59l-7.1-9.8v9.8h-1.8zm13.6 7.9c0-.5.1-1.1.3-1.6s.6-1 1-1.3c.4-.4.9-.7 1.4-.9q1.8-.6 3.6 0c.5.2 1 .5 1.4.9s.8.8 1 1.3.4 1.1.3 1.6c0 .6-.1 1.1-.3 1.6s-.6 1-1 1.3c-.4.4-.9.7-1.4.9q-1.8.6-3.6 0c-.5-.2-1-.5-1.4-.9s-.8-.8-1-1.3-.4-1-.3-1.6m1.7 0c0 .4.1.8.2 1.1q.15.45.6.9l.9.6q1.2.45 2.4 0 .45-.15.9-.6.3-.3.6-.9c.1-.4.2-.7.2-1.1s-.1-.8-.2-1.1q-.15-.45-.6-.9l-.9-.6q-1.2-.45-2.4 0-.45.15-.9.6-.3.3-.6.9c-.2.3-.2.7-.2 1.1m14-2.7h-2.3v4.3c0 .2 0 .4.1.6s.2.3.4.4.5.2.7.2h.6c.2 0 .4-.1.6-.2v1.4c-.2.1-.5.2-.8.2-.2 0-.5.1-.7.1-.5 0-1-.1-1.5-.2-.3-.1-.6-.4-.8-.6q-.3-.45-.3-.9v-5.1h-1.9v-1.3h1.9v-2.2H77v2.2h2.3v1.1zm7.6-5.2h8v1.5h-6.3v3.7h5.9v1.5h-5.9v5.1H87zm9.5 7.9c0-.6.1-1.1.3-1.6s.6-1 1-1.3c.4-.4.9-.7 1.4-.9q1.8-.6 3.6 0c.5.2 1 .5 1.4.9s.8.8 1 1.3.4 1.1.3 1.6c0 .6-.1 1.1-.3 1.6s-.6 1-1 1.3c-.4.4-.9.7-1.4.9q-1.8.6-3.6 0c-.5-.2-1-.5-1.4-.9s-.8-.8-1-1.3-.3-1.1-.3-1.6m1.8 0c0 .4.1.8.2 1.1q.15.45.6.9l.9.6c.8.3 1.6.3 2.3 0q.45-.15.9-.6.3-.3.6-.9c.1-.4.2-.7.2-1.1s-.1-.8-.2-1.1q-.15-.45-.6-.9l-.9-.6c-.8-.3-1.6-.3-2.3 0q-.45.15-.9.6-.3.3-.6.9c-.2.3-.2.7-.2 1.1m17 4h-1.6v-1.2c-.2.4-.6.8-1.1 1-.5.3-1.1.4-1.8.4-.4 0-.8-.1-1.2-.2s-.7-.3-1-.5c-.3-.3-.5-.6-.7-1s-.3-.9-.3-1.4v-5h1.6v4.7c0 .3.1.6.2 1 .1.2.2.5.4.6.2.2.4.3.6.4s.5.1.7.1c.3 0 .6 0 .9-.1s.5-.3.8-.5c.2-.2.4-.5.5-.8.1-.4.2-.8.2-1.2v-4.1h1.6zm2.5-8h1.6v1.2c.2-.4.6-.8 1.1-1 .5-.3 1.2-.4 1.8-.4.4 0 .8.1 1.2.2s.7.3 1 .5c.3.3.5.6.7 1s.3.9.2 1.4v5.1h-1.6v-4.7c0-.3 0-.6-.2-1-.1-.2-.2-.5-.4-.6-.2-.2-.4-.3-.6-.4s-.5-.1-.7-.1c-.3 0-.7 0-1 .1s-.5.3-.8.5c-.2.2-.4.5-.5.8-.1.4-.2.8-.2 1.2v4.1h-1.6zm18.6 8h-1.6v-1.1c-.3.4-.8.8-1.3 1s-1.1.3-1.7.4q-.9 0-1.8-.3c-.5-.2-1-.5-1.4-.9s-.7-.8-.9-1.3q-.6-1.65 0-3.3c.2-.5.5-.9.9-1.3s.9-.7 1.4-.9q.9-.3 1.8-.3c.6 0 1.2.1 1.7.4.5.2.9.6 1.2 1v-5.9h1.6zm-4.4-1.2c.4 0 .8-.1 1.2-.2q.45-.15.9-.6.3-.3.6-.9c.1-.4.2-.7.2-1.1s-.1-.8-.2-1.1q-.15-.45-.6-.9l-.9-.6q-1.2-.45-2.4 0-.45.15-.9.6-.3.3-.6.9c-.1.4-.2.7-.2 1.1s.1.8.2 1.1q.15.45.6.9l.9.6c.4.1.8.2 1.2.2" class="st1"/></g><g id="_404_text"><path d="M366.5 220.9h86.1c4.4 0 8 3.6 8 8v30c0 4.4-3.6 8-8 8h-86.1c-4.4 0-8-3.6-8-8v-30c0-4.4 3.6-8 8-8" class="st0"/><path d="M452.6 267.6h-86.1c-4.8 0-8.7-3.9-8.7-8.7v-30c0-4.8 3.9-8.7 8.7-8.7h86.1c4.8 0 8.7 3.9 8.7 8.7v30c0 4.8-3.9 8.7-8.7 8.7m-86.1-46c-4 0-7.3 3.3-7.3 7.3v30c0 4 3.3 7.3 7.3 7.3h86.1c4 0 7.3-3.3 7.3-7.3v-30c0-4-3.3-7.3-7.3-7.3z" class="st3"/><path d="M390 250.8h-12v-4.2l9.1-13.5h7.9v13.5h2.9v4.2H395v3.9h-5zm0-4.2v-10.3l-7 10.3zm9.3-2.7c0-7 4.2-11.2 10.3-11.2s10.2 4.3 10.2 11.2-4.2 11.2-10.2 11.2-10.3-4.2-10.3-11.2m15.6 0c0-4.7-2-7.1-5.2-7.1s-5.3 2.3-5.3 7.1 2 7.1 5.3 7.1 5.2-2.4 5.2-7.1m18.3 6.9h-12.1v-4.2l9.1-13.5h7.9v13.5h2.9v4.2h-2.9v3.9h-5zm0-4.2v-10.3h-.1l-7 10.3z" class="st1"/></g><path id="line" d="M435.5 353.3h-361c-.4 0-.7-.3-.7-.7s.3-.7.7-.7h361c.4 0 .7.3.7.7s-.2.7-.7.7" class="st1"/></svg>