<svg enable-background="new 0 0 32 32" height="800" viewBox="0 0 32 32" width="800" xmlns="http://www.w3.org/2000/svg"><path d="m16 1c-5.51 0-10 4.5-10 10.04 0 5.25 8.34 13.72 9.29 14.67.2.19.45.29.71.29s.51-.1.71-.29c.95-.95 9.29-9.42 9.29-14.67 0-5.54-4.49-10.04-10-10.04z" fill="#3f51b5"/><g fill="#2197f3"><path d="m20 11.04c0 2.2-1.79 4-4 4s-4-1.8-4-4c0-2.21 1.79-4 4-4s4 1.79 4 4z"/><path d="m16 31c-.2354 0-.4595-.0005-.6943-.0107-7.0957-.1241-14.3057-2.3936-14.3057-6.4893 0-2.0806 1.9492-3.8872 5.4893-5.0874.5225-.1748 1.0903.103 1.2681.6265.1772.5229-.103 1.0903-.6265 1.2681-2.5479.8637-4.1309 2.0868-4.1309 3.1928 0 2.0215 5.0791 4.3623 12.3677 4.4902.2309.0098.4248.0108.6323.0098.208 0 .4009 0 .6055-.0088 7.3154-.1289 12.3945-2.4697 12.3945-4.4912 0-1.106-1.583-2.3291-4.1309-3.1929-.5234-.1777-.8037-.7451-.6265-1.2681.1777-.5234.7451-.8022 1.2681-.6265 3.5401 1.2003 5.4893 3.0069 5.4893 5.0875 0 4.0957-7.21 6.3652-14.3325 6.4902-.208.0093-.4321.0098-.6675.0098z"/></g></svg>