<svg xmlns="http://www.w3.org/2000/svg" xml:space="preserve" id="Layer_1" x="0" y="0" class="show_show__wrapper__graphic__5Waiy" version="1.1" viewBox="0 0 500 500"><style>.st0{fill:#fff}.st1{fill:#d1d3d4}.st2{fill:#231f20}.st3{fill:#68e1fd}</style><g id="Floating_line_icons"><path d="M96.3 105.4h81.1v77H96.3z" class="st0"/><path d="M177.4 183.2H96.3c-.4 0-.7-.3-.7-.7v-77c0-.4.3-.7.7-.7h81.1c.4 0 .7.3.7.7v77c0 .3-.3.7-.7.7M97 181.7h79.7v-75.6H97z" class="st1"/><path d="M161.6 119.1h-42.5c-.4 0-.7-.4-.6-.8 0-.3.3-.6.6-.6h42.5c.4 0 .7.4.6.8 0 .3-.3.6-.6.6m-50 0H110c-.4 0-.7-.4-.6-.8 0-.3.3-.6.6-.6h1.5c.4 0 .7.4.6.8 0 .3-.2.6-.5.6m33.9 9.7h-26.4c-.4 0-.7-.3-.7-.7s.3-.7.7-.7h26.4c.4 0 .7.3.7.7s-.3.7-.7.7m-33.9 0H110c-.4 0-.7-.3-.7-.7s.3-.7.7-.7h1.5c.4 0 .7.3.7.7s-.3.7-.6.7m54.2 9.7h-46.7c-.4 0-.7-.3-.7-.7s.3-.7.7-.7h46.7c.4 0 .7.3.7.7s-.3.7-.7.7m-54.2 0H110c-.4 0-.7-.3-.7-.7s.3-.7.7-.7h1.5c.4 0 .7.3.7.7s-.3.7-.6.7m39.4 9.6h-31.9c-.4 0-.7-.4-.6-.8 0-.3.3-.6.6-.6H151c.4 0 .7.4.6.8 0 .3-.3.6-.6.6m-39.4 0H110c-.4 0-.7-.4-.6-.8 0-.3.3-.6.6-.6h1.5c.4 0 .7.4.6.8 0 .3-.2.6-.5.6m51.4 9.7h-43.9c-.4 0-.7-.3-.7-.7s.3-.7.7-.7H163c.4 0 .7.3.7.7s-.3.7-.7.7m-51.4 0H110c-.4 0-.7-.3-.7-.7s.3-.7.7-.7h1.5c.4 0 .7.3.7.7s-.3.7-.6.7m46.1 9.7h-38.6c-.4 0-.7-.3-.7-.7s.3-.7.7-.7h38.6c.4 0 .7.3.7.7s-.3.7-.7.7m-46.1 0H110c-.4 0-.7-.3-.7-.7s.3-.7.7-.7h1.5c.4 0 .7.3.7.7s-.3.7-.6.7" class="st1"/><path d="M341.5 104h58.6v85.2h-58.6z" class="st0"/><path d="M400.1 189.9h-58.6c-.4 0-.7-.3-.7-.7V104c0-.4.3-.7.7-.7h58.6c.4 0 .7.3.7.7v85.2c0 .4-.3.7-.7.7m-57.9-1.5h57.2v-83.7h-57.2z" class="st1"/><path d="M348.5 115.3h11.7V127h-11.7z" class="st0"/><path d="M360.1 127.7h-11.7c-.4 0-.7-.3-.7-.7v-11.7c0-.4.3-.7.7-.7h11.7c.4 0 .7.3.7.7V127c.1.3-.3.7-.7.7m-11-1.5h10.2V116h-10.2z" class="st1"/><path d="M353.1 124.7h-.2c-.2-.1-.4-.2-.5-.4l-1.5-3.7c-.2-.4 0-.8.4-.9.4-.2.8 0 1 .3v.1l1.2 2.8 8.7-6.3c.3-.2.8-.2 1 .2.2.3.2.8-.2 1l-9.4 6.8c-.2.1-.3.1-.5.1m40-3.4h-26.2c-.4 0-.7-.3-.7-.7s.3-.7.7-.7h26.2c.4 0 .7.3.7.7s-.3.7-.7.7" class="st1"/><path d="M348.5 132.2h11.7v11.7h-11.7z" class="st0"/><path d="M360.1 144.6h-11.7c-.4 0-.7-.3-.7-.7v-11.7c0-.4.3-.7.7-.7h11.7c.4 0 .7.3.7.7v11.7c.1.4-.3.7-.7.7m-11-1.4h10.2V133h-10.2z" class="st1"/><path d="M353.1 141.7h-.2c-.2-.1-.4-.2-.5-.4l-1.5-3.6c-.2-.4 0-.8.4-.9.4-.2.8 0 1 .4l1.2 2.8 8.7-6.3c.3-.2.8-.2 1 .2.2.3.2.8-.2 1l-9.4 6.8zm40-3.4h-26.2c-.4 0-.7-.3-.7-.7s.3-.7.7-.7h26.2c.4 0 .7.3.7.7s-.3.7-.7.7" class="st1"/><path d="M348.5 149.2h11.7v11.7h-11.7z" class="st0"/><path d="M360.1 161.6h-11.7c-.4 0-.7-.3-.7-.7v-11.7c0-.4.3-.7.7-.7h11.7c.4 0 .7.3.7.7v11.7c.1.4-.3.7-.7.7m-11-1.4h10.2V150h-10.2z" class="st1"/><path d="M353.1 158.7h-.2c-.2-.1-.4-.2-.5-.4l-1.5-3.6c-.2-.4 0-.8.3-1 .4-.2.8 0 1 .3v.1l1.2 2.8 8.7-6.3c.3-.2.8-.2 1 .2.2.3.2.8-.2 1l-9.4 6.9c0-.1-.2 0-.4 0m40-3.4h-26.2c-.4 0-.7-.3-.7-.7s.3-.7.7-.7h26.2c.4 0 .7.3.7.7s-.3.7-.7.7" class="st1"/><path d="M348.5 166.2h11.7v11.7h-11.7z" class="st0"/><path d="M360.1 178.6h-11.7c-.4 0-.7-.3-.7-.7v-11.7c0-.4.3-.7.7-.7h11.7c.4 0 .7.3.7.7v11.7c.1.4-.3.7-.7.7m-11-1.4h10.2V167h-10.2z" class="st1"/><path d="M353.1 175.7h-.2c-.2-.1-.4-.2-.5-.4l-1.5-3.6c-.2-.4 0-.8.4-.9.4-.2.8 0 1 .3v.1l1.2 2.8 8.7-6.3c.3-.2.8-.2 1 .2.2.3.2.8-.2 1l-9.4 6.8zm40-3.4h-26.2c-.4 0-.7-.3-.7-.7s.3-.7.7-.7h26.2c.4 0 .7.3.7.7 0 .3-.3.7-.7.7" class="st1"/><path d="M321.4 235.4h82.3v49.9h-82.3z" class="st0"/><path d="M403.7 285.9h-82.3c-.4 0-.7-.3-.7-.7v-49.9c0-.4.3-.7.7-.7h82.3c.4 0 .7.3.7.7v49.9c0 .4-.3.7-.7.7m-81.6-1.4H403v-48.4h-80.9z" class="st1"/><path d="M403.7 246.8h-82.3c-.4 0-.7-.3-.7-.7s.3-.7.7-.7h82.3c.4 0 .7.3.7.7 0 .3-.3.7-.7.7" class="st1"/><path d="M334.5 285.6c-.4 0-.7-.3-.7-.7v-49.5c0-.4.3-.7.7-.7s.7.3.7.7v49.5c0 .3-.3.7-.7.7" class="st1"/><circle cx="116.3" cy="240.6" r="15.5" class="st0" transform="rotate(-84.345 116.332 240.62)scale(.99997)"/><path d="M116.3 256.8c-9 0-16.2-7.3-16.2-16.2 0-9 7.3-16.2 16.2-16.2s16.2 7.3 16.2 16.2c0 9-7.2 16.2-16.2 16.2m0-31c-8.2 0-14.8 6.6-14.8 14.8s6.6 14.8 14.8 14.8 14.8-6.6 14.8-14.8c0-8.1-6.6-14.7-14.8-14.8" class="st1"/><path d="M115.2 232.6v8l9-6.5" class="st0"/><path d="M115.2 241.3c-.1 0-.2 0-.3-.1-.2-.1-.4-.4-.4-.6v-8c0-.4.3-.7.7-.7s.7.3.7.7v6.6l7.8-5.7c.3-.2.8-.2 1 .2.2.3.2.8-.2 1l-9 6.5c0 .1-.1.1-.3.1m48.6-7.7h-22.9c-.4 0-.7-.3-.7-.7s.3-.7.7-.7h22.9c.4 0 .7.3.7.7s-.3.7-.7.7m0 7.4h-22.9c-.4 0-.7-.3-.7-.7s.3-.7.7-.7h22.9c.4 0 .7.3.7.7s-.3.7-.7.7m-9.4 7.4h-13.6c-.4 0-.7-.3-.7-.7s.3-.7.7-.7h13.6c.4 0 .7.3.7.7s-.3.7-.7.7" class="st1"/><circle cx="116.3" cy="279.6" r="15.5" class="st0" transform="matrix(.07089 -.9975 .9975 .07089 -170.803 375.808)"/><path d="M116.3 295.8c-9 0-16.2-7.3-16.2-16.2s7.3-16.2 16.2-16.2 16.2 7.3 16.2 16.2-7.2 16.2-16.2 16.2m0-31c-8.2 0-14.8 6.6-14.8 14.8s6.6 14.8 14.8 14.8 14.8-6.6 14.8-14.8-6.6-14.8-14.8-14.8" class="st1"/><path d="M115.2 271.6v8l9-6.6" class="st0"/><path d="M115.2 280.3c-.1 0-.2 0-.3-.1-.2-.1-.4-.4-.4-.6v-8c0-.4.3-.7.7-.7s.7.3.7.7v6.6l7.8-5.7c.3-.2.8-.2 1 .2.2.3.2.8-.2 1l-9 6.5c0 .1-.1.1-.3.1m48.6-7.7h-22.9c-.4 0-.7-.3-.7-.7s.3-.7.7-.7h22.9c.4 0 .7.3.7.7s-.3.7-.7.7m0 7.3h-22.9c-.4 0-.7-.3-.7-.7s.3-.7.7-.7h22.9c.4 0 .7.3.7.7s-.3.7-.7.7m-9.4 7.4h-13.6c-.4 0-.7-.3-.7-.7s.3-.7.7-.7h13.6c.4 0 .7.3.7.7s-.3.7-.7.7" class="st1"/><path d="M296.1 323.1h35.1v37.5h-35.1z" class="st0"/><path d="M331.2 361.3h-35.1c-.4 0-.7-.3-.7-.7v-37.5c0-.4.3-.7.7-.7h35.1c.4 0 .7.3.7.7v37.5c0 .4-.3.7-.7.7m-34.4-1.4h33.6v-36.1h-33.6z" class="st1"/><path d="M331.2 330.2h-35.1c-.4 0-.7-.3-.7-.7s.3-.7.7-.7h35.1c.4 0 .7.3.7.7s-.3.7-.7.7m-14.5 8.2-10.9-.1v-3.5h15.6v3.1l-8.2 15h-4.6zm-10.9-10.8c-.3 0-.5-.1-.6-.4-.2-.3-.1-.8.2-1 1.6-.9 2.3-2.8 1.8-4.6-.3-1.1-1.3-1.8-2.4-1.7q-1.35 0-2.4.9c-.4.6-.7 1.3-.6 2.1 0 .4-.2.7-.6.8s-.7-.2-.8-.6c-.1-1.1.2-2.3.9-3.2.9-.9 2.1-1.5 3.4-1.5 1.8-.2 3.4 1 3.9 2.8.7 2.4-.4 4.9-2.5 6.2 0 .2-.1.2-.3.2m18.3 0c-.3 0-.5-.1-.6-.4-.2-.3-.1-.8.2-1 1.6-.9 2.3-2.8 1.8-4.6-.3-1.1-1.3-1.8-2.4-1.7-.9 0-1.7.3-2.4 1-.4.6-.7 1.3-.6 2.1 0 .4-.2.8-.6.8s-.8-.2-.8-.6c-.1-1.1.2-2.3.9-3.2.9-.9 2.1-1.5 3.4-1.5 1.8-.2 3.4 1 3.9 2.8.6 2.4-.4 4.9-2.5 6.2 0 .1-.2.1-.3.1" class="st1"/></g><g id="Character"><path d="M271.6 292.7s11.4 34.6 5.2 34.6-21.5-18.7-21.5-18.7l12.3-15.9" class="st0"/><path d="M276.9 327.9c-6.4 0-21.4-18.2-22-19-.2-.2-.2-.6 0-.8l12.4-15.9c.2-.3.6-.3.9-.1s.3.6.1.9l-12 15.5c4.5 5.4 16 18.1 20.7 18.1q.45 0 .6-.3c2.3-3.2-2.6-21.8-6.5-33.5-.1-.3.1-.7.4-.8s.7.1.8.4c1 3 9.7 29.9 6.3 34.6-.4.6-1 .9-1.7.9m-45.7-115.7S184 272.1 181 293.4s68.3 18.3 68.3 18.3l8.4-31.2s-37.4 2.7-33.1-4.1 30.5-32.2 30.5-32.2l4-35.6z" class="st2"/><path d="M240.1 312.5c-16 0-48.1-1.3-57.3-11.5-2-2-2.9-4.9-2.5-7.7 3-21.2 48.5-79.1 50.4-81.5.1-.1.2-.2.4-.2l27.9-3.5c.2 0 .4 0 .5.2.1.1.2.3.2.5l-4 35.6c0 .1-.1.3-.2.4-.3.3-26.2 25.5-30.4 32.1-.3.5-.2.9-.1 1 1.8 3.1 21 2.9 32.7 2.1.2 0 .4.1.5.2.1.2.2.4.1.5l-8.4 31.2c-.1.3-.3.4-.6.5-.5 0-4 .1-9.2.1m-8.5-99.7c-3 3.8-47.2 60.4-50 80.7-.4 2.4.4 4.9 2.2 6.7 11.2 12.4 59.8 11.1 65.1 11l8.1-29.9c-5.7.4-30.3 1.7-33-2.7-.4-.7-.4-1.7.1-2.3 4.1-6.5 28.1-29.8 30.5-32.1l3.9-34.6z" class="st2"/><path d="M248.4 208.8c0 2.5-20.7 117.2-31 163.8l7.4 42.3s29.4-55.1 44.7-106.9 18.9-89.5 18.9-89.5z" class="st2"/><path d="M224.8 415.5h-.1c-.3 0-.5-.2-.5-.5l-7.4-42.3v-.2c10.5-47.7 31-161.4 31-163.7 0-.2.1-.4.2-.5.2-.1.3-.2.5-.1l39.9 9.8c.3.1.5.3.5.6 0 .4-3.8 38.4-18.9 89.6s-44.4 106.4-44.7 107c-.1.2-.3.3-.5.3m-6.8-42.9 7 40.4c4.9-9.5 30.1-58.9 43.8-105.1 14.2-47.9 18.4-84.1 18.9-88.9l-38.7-9.5c-1.5 10.6-21.2 119-31 163.1" class="st2"/><path d="M275.9 130.7s-30.6-.7-45 10.9-38.1 45.6-34.6 53.5 16.7 13.7 34.8.7l-5.4 23.5 64.3 10s17.5-77 15.7-82.5c-2.1-4.8-15.5-16.8-29.8-16.1" class="st3"/><path d="M236.1 174.7c-.3 0-.6-.3-.6-.6 0-.1 0-.2.1-.3.3-1.2 1.8-17.5 2.7-28.2.1-.3.4-.6.7-.5s.5.3.5.6c-1.5 18.6-2.5 28.2-2.8 28.7q-.15.3-.6.3" class="st2"/><path d="M260.7 123.7c-1.1.2-5.3-8.1-5.7-9.5-.6-2-.3-4.3-.8-6.2-.6-2.4-2.6-4.6-4-6.6-1.7-2.2-3.4-4.7-3.8-7.4s.7-6 3.3-7.1c3.4-1.5 8.2.8 10.4-2.1.3-.6.7-1.1 1.2-1.6.9-.6 2.1-.8 3.1-.5 3.5.5 6.8 1.8 9.7 3.7.6.5 1.3.8 2.1.8.7-.1 1.2-.7 1.8-.9 1.1-.3 2.3 0 3.3.6 6.9 3.9 10 9.3 9.1 17.1l-1.6 14z" class="st0"/><path d="M260.6 124.3c-.5 0-1.4-.5-3.6-4.5-1-1.8-1.9-3.6-2.6-5.5-.3-1.1-.4-2.2-.5-3.4 0-1-.2-1.9-.4-2.9-.7-2-1.8-3.8-3.1-5.3l-.8-1c-1.7-2.3-3.4-4.8-3.9-7.7s.6-6.5 3.6-7.8c1.6-.6 3.3-.7 5-.6 2.2.1 4.1.1 5.2-1.3.1-.2.3-.4.4-.6.2-.4.5-.8.9-1.1 1.1-.7 2.4-1 3.7-.6 3.6.5 7 1.8 10 3.8.5.4 1 .6 1.7.7.3-.1.6-.2.8-.4.3-.2.5-.3.8-.5 1.4-.6 2.9.1 3.8.7 7.2 4.1 10.3 9.9 9.4 17.8l-1.5 14c0 .3-.2.5-.5.6l-28.1 5.8c-.1-.2-.2-.2-.3-.2M253 86.9c-1.1-.1-2.1.1-3.1.5-2.4 1-3.3 4.1-2.9 6.4.4 2.7 2.1 5 3.7 7.2.2.3.5.7.8 1 1.3 1.7 2.8 3.7 3.4 5.8.2 1 .4 2 .4 3.1s.2 2.1.4 3.2c.4 1.4 3.9 8.3 5.1 9l27.5-5.7 1.5-13.6c.8-7.4-2-12.7-8.8-16.5-.8-.6-1.8-.8-2.7-.6l-.6.3c-.4.3-.8.5-1.3.6-.9.1-1.8-.2-2.5-.8-2.9-1.8-6.1-3.1-9.5-3.6-.9-.2-1.8-.1-2.6.3-.2.2-.5.5-.6.8-.1.2-.3.5-.5.7-1.5 1.9-3.9 1.9-6.3 1.8z" class="st2"/><path d="M265.7 129.4 265 141s.8 6.6 8 5c4.3-1 7.9-3.9 9.9-7.9 0 0 1.6-27.9 2.1-35.3-4.5-.3-8.7.9-13.3 0-3.9-.8-7.8-2-11.6-3.5-.8 8.1-3.4 15.4-2.2 23.5.8 5.7 7.8 6.6 7.8 6.6" class="st0"/><path d="M270.9 146.9c-1.3 0-2.7-.4-3.8-1.1-1.5-1.1-2.5-2.8-2.8-4.7l.7-11.2c-1.8-.4-7-1.9-7.8-6.9-.8-5.6.1-10.7 1-16 .4-2.5.9-5 1.2-7.6 0-.2.1-.4.3-.5s.4-.1.6-.1c3.7 1.5 7.6 2.6 11.5 3.4 2.5.4 5 .4 7.5.1 1.9-.2 3.8-.2 5.7-.2.2 0 .3.1.4.2s.2.3.1.5c-.5 7.3-2.1 35.1-2.1 35.4v.2c-2 4.2-5.8 7.2-10.3 8.2-.7.2-1.5.3-2.2.3m-5.3-5.8c.4 3 3.1 5 6.1 4.6l1.2-.3c4.1-.9 7.5-3.7 9.4-7.4.1-2 1.5-26.7 2.1-34.6-1.6 0-3.3 0-4.9.2-2.6.3-5.3.3-7.9-.1-3.7-.8-7.4-1.9-10.9-3.2-.3 2.4-.7 4.7-1.1 6.9-1 5.3-1.8 10.2-1 15.6.8 5 7.2 5.9 7.3 5.9.3.1.6.3.5.7z" class="st2"/><path d="M265.4 135.1s4.7.5 7.9-2.5c1.8-1.5 2.9-3.8 2.9-6.2 0 0-5.3 3.1-10.6 3z" class="st2"/><path d="M266.2 135.8h-.8c-.3 0-.6-.3-.5-.6l.2-5.7c0-.3.3-.6.6-.6 5.1.1 10.2-2.9 10.3-2.9q.3-.15.6 0c.2.1.3.3.3.5 0 2.6-1.2 5-3.1 6.7-2.1 1.7-4.9 2.6-7.6 2.6m-.1-1.3c2.5.1 5-.8 6.9-2.4 1.4-1.2 2.3-2.9 2.7-4.7-2.9 1.5-6.1 2.4-9.4 2.5z" class="st2"/><path d="M271.3 113.3s-4.1 5.4-3.2 6.4 3.4.5 3.4.5" class="st0"/><path d="M270.1 121c-.9.1-1.8-.2-2.5-.9-.9-1.2 1.2-4.6 3.2-7.2.2-.3.6-.3.9-.1s.3.6.1.9c-1.9 2.5-3.4 5.2-3.2 5.7.4.5 1.8.4 2.7.2.3-.1.7.1.7.5.1.3-.1.7-.5.7-.4.1-.9.2-1.4.2" class="st2"/><path d="M269.8 125.3c-2-.1-3.8-1-5.1-2.5-.2-.2-.2-.6 0-.9.2-.2.6-.2.9 0 1.1 1.3 2.8 2.1 4.5 2.1 3.2-.2 5.9-3.6 5.9-3.7.2-.2.6-.3.9 0 .2.2.3.5.1.8-.1.2-3 3.9-6.8 4.1zm-9.4-12.2c-1.5 0-2.6-1.2-2.6-2.6v-2.4c0-1.5 1.2-2.7 2.6-2.7h6.6a2.73 2.73 0 0 1 2.7 2.7v2.4c0 1.4-1.2 2.6-2.6 2.6zm6.6-6.5-6.6.1c-.4 0-.7.2-1 .4-.3.3-.4.6-.4 1v2.4c0 .4.2.7.4 1 .3.3.6.4 1 .4h6.6c.8 0 1.4-.6 1.4-1.4v-2.4c0-.4-.2-.7-.4-1-.3-.3-.6-.5-1-.5m6.6 6.4c-1.5 0-2.6-1.2-2.6-2.6V108c0-1.5 1.2-2.7 2.6-2.7h6.6c1.5 0 2.6 1.2 2.6 2.6v2.4c0 1.5-1.2 2.7-2.6 2.7zm6.6-6.5-6.6.1c-.8 0-1.4.6-1.4 1.4v2.4c0 .4.2.7.4 1 .3.3.6.4 1 .4h6.6c.4 0 .7-.2 1-.4.3-.3.4-.6.4-1V108c0-.4-.2-.7-.4-1s-.6-.5-1-.5" class="st2"/><path d="M269 108.6c-.3 0-.7-.2-.7-.5s.2-.7.5-.7h2.7c.3 0 .6.3.6.6s-.3.6-.6.6zm19.8 4.3c-.1 0-.2 0-.3-.1l-6.6-4.4c-.3-.2-.4-.6-.2-.9s.6-.4.9-.2l6.6 4.4c.3.2.4.6.2.9q-.3.3-.6.3" class="st2"/><path d="M282.5 113.7c1.3-1.7 3.4-4.7 6-3.6.7.3 1.2.8 1.7 1.4 1.9 2.6 1.4 5.8-.1 8.4-1.3 2.3-5.2 5.6-7.6 2.5" class="st0"/><path d="M284.9 124.3c-1.1 0-2.2-.6-2.9-1.5-.2-.3-.2-.7.1-.9s.7-.2.9.1c.4.7 1.2 1 2 1 1.6-.1 3.6-1.9 4.5-3.4 1.6-2.8 1.7-5.7.1-7.7-.4-.5-.8-.9-1.4-1.2-1.7-.8-3.3 1-4.9 3l-.3.4c-.2.3-.6.3-.9.1s-.3-.6-.1-.9l.3-.4c1.4-1.7 3.6-4.6 6.4-3.4.8.4 1.4.9 1.9 1.6 1.9 2.5 1.9 5.9 0 9.1-.9 1.5-3.1 3.9-5.5 4.1z" class="st2"/><ellipse cx="265.7" cy="110.2" class="st2" rx=".7" ry="1.5" transform="matrix(1 -.00838 .00838 1 -.914 2.23)"/><ellipse cx="276.2" cy="111" class="st2" rx=".7" ry="1.5" transform="matrix(1 -.00838 .00838 1 -.92 2.318)"/><path d="m247.78 150.39 3.052-1.254 9.662 23.49-3.052 1.255z" class="st0"/><path d="M257.5 174.5c-.3 0-.5-.2-.6-.4l-9.7-23.5c-.1-.3 0-.7.3-.8l3.1-1.3c.2-.1.3-.1.5 0s.3.2.3.4l9.7 23.5c.1.2.1.3 0 .5s-.2.3-.4.4l-3.1 1.3c0-.1-.1-.1-.1-.1m-8.9-23.7 9.2 22.3 1.9-.8-9.2-22.3z" class="st2"/><path d="m247.243 150.593 4.161-1.712 4.413 10.728-4.162 1.712z" class="st0"/><path d="M251.6 162c-.1 0-.2 0-.2-.1-.2-.1-.3-.2-.4-.4l-4.4-10.7c-.2-.3 0-.7.3-.9h.1l4.2-1.7c.2-.1.3-.1.5 0s.3.2.4.3l4.4 10.7c.1.3 0 .7-.3.8l-4.2 1.7c-.2.2-.3.3-.4.3m-3.5-11 3.9 9.5 3-1.2-3.9-9.5z" class="st2"/><path d="M256.8 159.3h-.2c-1.5-.4-1.8-2.9-2-5.6 0-1-.2-1.9-.4-2.9-.1-.2-.2-.3-.4-.4-.5 0-1 .1-1.5.4-.3.2-.7.2-.9-.1s-.2-.7.1-.9l.1-.1c.7-.5 1.6-.7 2.5-.6.5.1.9.5 1.2 1 .3 1.1.5 2.2.5 3.3.1 1.4.4 4.3 1 4.4.3.1.6.4.5.8 0 .4-.3.7-.5.7" class="st2"/><path d="M240.4 169.9s4.5-8.3 8.5-8.1 9.9 10.8 9.9 10.8z" class="st0"/><path d="M258.8 173.3h-.1l-18.4-2.7c-.2 0-.4-.2-.5-.4q-.15-.3 0-.6c.5-.9 4.9-8.7 9.1-8.4s9.8 10 10.5 11.1c.2.3.1.7-.2.9-.1.1-.3.2-.4.1m-17.4-3.9 16.2 2.4c-2-3.3-6.1-9.2-8.8-9.4s-5.9 4.5-7.4 7" class="st2"/><path d="m283.1 222.8-8.7-50.4-43.5-6.2 8.2 49.7z" class="st2"/><path d="M283.1 223.4h-.1l-44-6.9c-.3 0-.5-.2-.5-.5l-8.2-49.7c0-.2 0-.4.2-.5.1-.1.3-.2.5-.2l43.6 6.2c.3 0 .5.2.5.5l8.7 50.4c.1.3-.2.7-.5.7zm-43.5-8.1 42.8 6.7-8.5-49.1-42.3-6z" class="st2"/><path d="M305.8 146.8s31 62.6 19.2 68.6-39.2-10.4-39.2-10.4l-.1-13 20.9 2.1-15.5-14.1z" class="st3"/><path d="m281.2 192.9 9.2 1.5c1.2 1.4 1.9 3.2 2 5.1 0 2.2-1 4.3-2.8 5.8l-7.2-2.4c-.1-.1 1.4-7-1.2-10" class="st0"/><path d="M289.6 205.9h-.2l-7.2-2.4c-.3-.1-.5-.4-.4-.7 0-.1 1.3-6.6-1-9.3-.2-.2-.2-.5-.1-.7s.4-.4.7-.3l9.2 1.5c.1 0 .3.1.4.2 1.3 1.6 2 3.5 2.1 5.5 0 2.4-1.1 4.7-3 6.2zm-6.6-3.5 6.4 2.1c1.4-1.3 2.3-3.1 2.3-5-.1-1.6-.7-3.2-1.6-4.5l-7.5-1.2c1.2 2.9.7 7.1.4 8.6" class="st2"/><path d="M281.2 192.9c-.7-.4-1.5-.6-2.3-.7-1.5-.1-9.6-1.4-10.4.3-.6 1.3 0 1.6 0 1.6s-2.4 0-1.8 2.1c0 0-1 2.4.9 3 0 0-1.2.7.2 1.8 2.7 2 12.1 6.8 14.9 4.4.9-.9 1.6-2 1.8-3.2.9-3.4-.3-7.6-3.3-9.3" class="st0"/><path d="M280.5 206.7c-4.3 0-11-3.6-13.1-5.2-.6-.3-.9-1-1-1.6 0-.2.1-.3.1-.5-.2-.2-.4-.5-.6-.8-.3-.8-.3-1.7 0-2.5-.2-.6-.1-1.3.3-1.8.3-.4.7-.7 1.2-.8 0-.5.1-1 .4-1.4.8-1.6 4.7-1.5 10.2-.8.4 0 .6.1.8.1.9.1 1.8.4 2.6.8 3.1 1.7 4.7 6 3.6 10.1-.3 1.4-1 2.6-2 3.6-.6.6-1.6.9-2.5.8m-11.7-13.1c.3.2.4.6.2.9-.1.2-.3.3-.5.3-.4 0-.8.2-1.1.4q-.15.45 0 .9c.1.1.1.3 0 .4-.2.5-.3 1.1-.1 1.6.1.2.4.4.6.5s.4.3.4.6q0 .45-.3.6c-.1 0-.1.1-.2.2 0 .1.1.2.5.5 3 2.3 11.8 6.4 14.1 4.5.8-.8 1.4-1.8 1.6-2.9.9-3.5-.4-7.2-3-8.6-.6-.4-1.4-.6-2.1-.6l-.8-.1c-7.6-.9-8.8-.3-8.9.1-.2.2-.3.4-.4.7" class="st2"/><path d="m268.5 194.1 8.7.9" style="fill:none"/><path d="m277.2 195.6-8.8-.9c-.3 0-.6-.3-.6-.7 0-.3.4-.6.7-.6l8.7.9c.3 0 .6.3.6.7s-.3.6-.6.6" class="st2"/><path d="M266.7 196.2s6.6 1.9 9.1 1.6" class="st0"/><path d="M275.3 198.5c-2.8 0-8.4-1.6-8.7-1.6-.3-.1-.5-.4-.5-.8.1-.3.5-.5.8-.4 1.8.5 6.9 1.8 8.8 1.5.4 0 .7.2.7.6s-.2.7-.6.7z" class="st2"/><path d="M267 198.9s4.5 2.4 7.9 2.4" class="st0"/><path d="M274.8 202c-3.5 0-8-2.4-8.2-2.5q-.45-.3-.3-.9c.2-.3.6-.4.9-.3 0 0 4.4 2.3 7.6 2.3.4 0 .6.3.6.6.1.5-.2.8-.6.8m-21.4-31.3c-.2 0-.4-.1-.5-.3-.8-1.3-1.6-2.5-2.6-3.7-.2-.3-.1-.7.1-.9s.5-.2.8 0c1.1 1.2 2 2.5 2.8 3.9.2.3.1.7-.2.8-.2.2-.3.2-.4.2m-3.8-.2c-.2 0-.4-.1-.5-.2-.8-.9-1.7-1.8-2.8-2.4-.3-.2-.4-.6-.2-.9s.6-.4.9-.2c1.2.7 2.3 1.6 3.1 2.7.2.3.2.7-.1.9-.1 0-.3.1-.4.1m48.7 20.2h-.1c-.3-.1-.6-.4-.5-.7l6.4-35.4c.1-.3.4-.6.7-.5s.6.4.5.7l-6.4 35.4c0 .3-.3.5-.6.5m20.4 8.4c-.2 0-.4-.1-.5-.3-1.7-2.6-9-3.9-11.7-4.1l-16.2-1.6c-.4 0-.6-.3-.6-.7 0-.3.4-.6.7-.6l16.2 1.6c.4.1 10.2 1 12.6 4.7.2.3.1.7-.2.9 0 .1-.1.1-.3.1M202.9 187c-.2 0-.3-.1-.5-.2-.2-.3-.2-.7 0-.9 5.1-4.8 28.8-14.6 29.8-15.1.3-.1.7 0 .8.4.1.3 0 .7-.3.8-.2.1-24.5 10.2-29.4 14.8-.1.1-.2.2-.4.2" class="st2"/><path d="M208 363.2c.5 0 4.3-.7 8.4 3.6s11.7 30.6 12.4 37.2c.3 4.1-1.2 8.1-4 11z" class="st0"/><path d="M224.8 415.6h-.2c-.2-.1-.4-.2-.4-.4l-16.8-51.7c-.1-.2 0-.4.1-.6s.3-.3.5-.2h.2c3.1-.2 6.1 1.1 8.7 3.8 4.4 4.5 11.9 31.2 12.5 37.6.3 4.3-1.2 8.4-4.2 11.5-.1-.1-.3 0-.4 0m-16-51.8 16.2 49.9c2.2-2.7 3.3-6.2 3.1-9.7-.7-6.9-8.3-32.8-12.2-36.8-1.8-2-4.3-3.3-7.1-3.4" class="st2"/><path d="M226.8 409.3s-6.3-31.5-11.8-40.3-10.6-7.2-11.1 1.9 7.6 41.7 13.1 45.3 11-1.3 9.8-6.9" class="st0"/><path d="M220.8 418.1c-1.5 0-2.9-.5-4.2-1.4-5.9-4-13.8-37.5-13.4-45.9.2-4.6 1.7-7.6 4-8.2 2.5-.6 5.4 1.5 8.3 6 5.5 8.8 11.6 39.2 11.9 40.5.7 3-.5 6-3 7.8-1 .9-2.3 1.3-3.6 1.2m-12.6-54.3c-.2 0-.4 0-.6.1-1.7.5-2.9 3.1-3 7.1-.4 9 7.6 41.3 12.8 44.8 1.8 1.4 4.4 1.5 6.3.2 2.1-1.5 3.1-4 2.5-6.5-.1-.3-6.3-31.5-11.8-40.1-2.2-3.6-4.5-5.6-6.2-5.6" class="st2"/><path d="M232 300.5h-.1c-.3-.1-.6-.4-.5-.8l11.6-63.2c.1-.3.4-.6.7-.5s.6.4.5.7L232.6 300c-.1.3-.3.5-.6.5" class="st0"/></g></svg>