<svg xmlns="http://www.w3.org/2000/svg" xmlns:xlink="http://www.w3.org/1999/xlink" data-name="Layer 1" viewBox="0 0 567.4 571.7">
  <defs>
    <linearGradient id="a" x1="232.4" x2="348.2" y1="453.7" y2="453.7" gradientTransform="rotate(-6 -342 368)" gradientUnits="userSpaceOnUse">
      <stop offset="0" stop-color="#ecc4d7"/>
      <stop offset=".4" stop-color="#efd4d1"/>
      <stop offset="1" stop-color="#f2eac9"/>
    </linearGradient>
    <linearGradient xlink:href="#a" id="d" x1="289.7" x2="429.2" y1="337.2" y2="541.5"/>
    <linearGradient xlink:href="#a" id="e" x1="294.9" x2="322.7" y1="158.2" y2="344.9"/>
    <linearGradient id="b" x1="301.8" x2="312.2" y1="337.5" y2="-76.7" gradientUnits="userSpaceOnUse">
      <stop offset="0" stop-opacity="0"/>
      <stop offset="1"/>
    </linearGradient>
    <linearGradient xlink:href="#b" id="f" x1="240.6" x2="74.8" y1="108.8" y2="221.7"/>
    <linearGradient xlink:href="#b" id="g" x1="244.1" x2="433.5" y1="146.6" y2="146.6"/>
    <linearGradient xlink:href="#a" id="h" x1="49.2" x2="277" y1="360.4" y2="360.4"/>
    <linearGradient xlink:href="#b" id="i" x1="158.8" x2="178.8" y1="241.8" y2="241.8"/>
    <linearGradient xlink:href="#a" id="j" x1="-1130.9" x2="-921.4" y1="344.8" y2="344.8" gradientTransform="matrix(-1 0 0 1 -590 0)"/>
    <linearGradient xlink:href="#b" id="k" x1="435.6" x2="407.9" y1="241.3" y2="242.1"/>
    <linearGradient xlink:href="#b" id="l" x1="299.7" x2="302" y1="202.9" y2="320.6"/>
    <linearGradient id="c" x1="295.6" x2="296.2" y1="226.5" y2="239.3" gradientUnits="userSpaceOnUse">
      <stop offset="0" stop-color="#fff" stop-opacity="0"/>
      <stop offset=".6" stop-color="#fff" stop-opacity=".4"/>
      <stop offset=".7" stop-color="#fff" stop-opacity=".7"/>
      <stop offset="1" stop-color="#fff"/>
    </linearGradient>
    <linearGradient xlink:href="#c" id="m" x1="217.8" x2="195.4" y1="233.7" y2="207.8"/>
    <linearGradient xlink:href="#c" id="n" x1="365.6" x2="329.7" y1="238.6" y2="217"/>
    <linearGradient xlink:href="#c" id="o" x1="303.9" x2="301.3" y1="81.6" y2="-233.6"/>
    <linearGradient xlink:href="#c" id="p" x1="421.1" x2="543.3" y1="92.9" y2="58.8"/>
    <linearGradient xlink:href="#c" id="q" x1="209.6" x2="975" y1="100.3" y2="168"/>
  </defs>
  <path fill="#578dfa" d="M561 352c11-30 18-66 2-94-11-19-30-31-49-41-56-30-118-49-166-90-7-6-15-13-24-18-10-4-21-5-32-6-47-4-95-7-141 7s-87 47-97 93c-8 36 3 74-7 109-9 28-32 52-39 81-13 49 22 100 67 123s98 21 148 17c26-2 51-5 75-11 22-6 44-15 67-16 35-3 74 12 104-7 10-7 18-17 28-24 22-13 33-16 38-42 5-29 16-54 26-81Z" opacity=".2" style="isolation:isolate" transform="translate(-5 -5)"/>
  <path fill="#578dfa" d="M249 364S96 383 81 421s-37 73-37 73 128 104 229 71 109-54 160-51 93-53 93-76-157-72-183-71-94-3-94-3Z"/>
  <path fill="url(#a)" d="M258 368c0 5-2-4-4 1l-11 32c-5 11 0 25 9 33s22 12 34 14c18 4 38 7 53-4 14-10 18-30 17-47a222 222 0 0 0-4-26l-10-56a6 6 0 0 0-1-3l-6-1c-19-1-50 0-67 11-16 10-10 27-10 46Z" transform="translate(-5 -5)"/>
  <path fill="url(#d)" d="M257 380c5 12 17 21 31 24s27 0 39-7c10-6 18-14 21-25l3-18 1-18c-6 7-16 11-25 12-24 4-45-5-67-11-11-4-10 3-10 12 1 10 2 21 7 31Z" transform="translate(-5 -5)"/>
  <path fill="url(#e)" d="M219 305s38 65 66 68 67 1 96-66 34-157-12-173c0 0-225-61-150 171Z" transform="translate(-5 -5)"/>
  <path fill="url(#b)" d="M378 308c-1 4-2 9-5 12-5 4-12 2-17 0-11-6-18-17-27-26a59 59 0 0 0-12-10l5 10a27 27 0 0 1 2 5 14 14 0 0 1 0 7 3 3 0 0 1 0 1 3 3 0 0 1-2 1 33 33 0 0 1-8 1l-14-1-3-3c-1-2 2-3 4-3h8c4 0 4 0 4-4l-1-16a26 26 0 0 0-15-2c-10 2-17 10-23 19s-11 18-20 23c-9 6-27 5-28-8-2-15 6-32 14-43a82 82 0 0 1 44-32l20-2c7 1 14 5 20 8l34 16c6 3 12 6 16 11 8 10 6 24 4 36Z" transform="translate(-5 -5)"/>
  <path fill="#3f3d56" d="M442 122c0 2 1 3 3 4 5 5 3 14-2 19l-17 13a17 17 0 0 0-6 10c-1 6 0 12 1 18a32 32 0 0 1-1 6 95 95 0 0 1-16 42c-3 4-6 7-11 7-7 1-11-8-13-14a293 293 0 0 1-9-44l-1-16c-2 7-11 8-17 4h-1c-5-4-8-10-10-16-3-6-8-13-14-15h-23c-12 0-24-2-35-3-7 0-13 0-19 2a18 18 0 0 0-6 3c-3 3-5 7-4 11-12 0-13 9-22 18s-24 15-17 25 1 17 1 29c-1 19-7 39-13 58-10-13-19-27-23-42l-5-23c-2-12-5-24-11-36l-7-14c-2-7-2-15-1-23 1-17 2-35 12-48a38 38 0 0 1 14-10c8-4 16-6 23-11 4-3 6-7 8-12 4-8 6-18 11-26a79 79 0 0 1 33-28c23-11 49-12 74-8 21 3 42 8 59 20a158 158 0 0 1 20 18c15 14 30 31 50 36 7 2 15 3 19 9s1 15-4 20-12 9-18 13l-2 4Z"/>
  <path fill="url(#f)" d="M184 172c-4 6-7 14-4 21l10-6-23 35c-2-12-5-24-11-35l-7-14c-2-8-2-16-1-24 1-16 2-34 12-47a38 38 0 0 1 14-11 13 13 0 0 1 5 3c5 6 6 16 9 23 3 11 8 23 6 35-2 7-7 13-10 20Z" transform="translate(-5 -5)"/>
  <path fill="url(#g)" d="M428 150c-5 7-4 15-3 23l1 10v8a8 8 0 0 1-1 1c-4 5-11 4-16 2-14-5-24-4-33-6-6-1-12-4-18-12a3 3 0 0 0-1-1c-5-3-8-10-10-16-3-6-8-12-14-14-8-2-15 0-23 0l-35-3c-7 0-13-1-19 1a18 18 0 0 0-6 4c-2-1-4-2-5-6-3-11 1-25 9-32s18-9 28-10c22-3 46-2 64 10 9 6 16 14 25 18 16 9 36 6 54 8 3 0 7 1 8 4 2 4-2 8-5 11Z" transform="translate(-5 -5)"/>
  <path fill="url(#h)" d="M276 202c-2-5-6-9-10-12a67 67 0 0 0-60-13 40 40 0 0 0-11 4c-5 4-9 9-13 15-22 33-30 74-33 113-1 9 0 18-3 27-31 68-98 154-97 162 24 20 66 48 84 48 11-19 52-159 60-179 4-8 10-25 15-33 13-19 34-19 49-36 4-5 8-9 9-15v-15a133 133 0 0 1 4-36c2-10 10-20 6-30Z" transform="translate(-5 -5)"/>
  <rect width="20" height="20.6" x="157.1" y="231.5" fill="#578dfa" rx="8.7"/>
  <rect width="20" height="20.6" x="158.8" y="231.5" fill="url(#i)" rx="8.7"/>
  <path fill="url(#j)" d="M333 202c2-5 6-9 10-12 16-13 39-19 59-13a40 40 0 0 1 11 4c6 4 10 9 14 15 22 33 29 74 32 113 1 9 0 18 4 27 30 68 77 102 76 110 14 45-47 71-72 69-11-19-43-128-52-148-3-8-9-26-14-33-14-19-34-19-50-36l-9-15v-15a133 133 0 0 0-3-36c-3-10-11-20-6-30Z" transform="translate(-5 -5)"/>
  <rect width="20" height="20.6" x="412.6" y="231.5" fill="#578dfa" rx="8.7"/>
  <rect width="20" height="20.6" x="410.5" y="231.5" fill="url(#k)" rx="8.7"/>
  <path fill="#578dfa" d="M269 209s22 15 52-1v50s-27-19-50 0Z"/>
  <path fill="url(#l)" d="M274 214s22 15 52-1v50s-27-19-50 0Z" transform="translate(-5 -5)"/>
  <path fill="#578dfa" d="M272 226h48v15h-48z"/>
  <path fill="url(#c)" d="M272 226h48v15h-48z" opacity=".7" style="isolation:isolate"/>
  <circle cx="222.9" cy="239.6" r="55" fill="#578dfa"/>
  <circle cx="222.9" cy="239.6" r="55" fill="url(#m)" opacity=".7" style="isolation:isolate"/>
  <circle cx="222.6" cy="240.1" r="47.6" fill="#fff"/>
  <circle cx="367.2" cy="239.6" r="55" fill="#578dfa"/>
  <circle cx="367.2" cy="239.6" r="55" fill="url(#n)" opacity=".7" style="isolation:isolate"/>
  <circle cx="366.9" cy="240.1" r="47.6" fill="#fff"/>
  <rect width="14.5" height="15.6" x="285.7" y="208.7" fill="#578dfa" rx="6.2"/>
  <path fill="#578dfa" d="M246 261h-51v-4h46v-48h5v52z"/>
  <path fill="#578dfa" d="M197 232h9v22h-9zm13-16h10v38h-10zm15 8h9v30h-9z"/>
  <path fill="#578dfa" d="M374 218a27 27 0 1 1-28 27v-3l27 3Z" opacity=".2" style="isolation:isolate" transform="translate(-5 -5)"/>
  <path fill="#578dfa" d="M371 215a5 5 0 0 1 1 0l-1 27-27-2a27 27 0 0 1 27-25Z" opacity=".5" style="isolation:isolate" transform="translate(-5 -5)"/>
  <path fill="url(#o)" d="M402 44a31 31 0 0 1-5 5c-15 11-34 5-51-2-18-7-36-14-55-16s-40 5-52 21c-6 8-12 21-22 21a15 15 0 0 1-12-4c4-9 6-19 11-26a79 79 0 0 1 33-29c23-10 49-11 74-7 21 2 42 8 59 20a158 158 0 0 1 20 17Z" opacity=".7" style="isolation:isolate" transform="translate(-5 -5)"/>
  <path fill="url(#p)" d="M430 88c6 4 14 5 21 5a30 30 0 0 1 8 1c2 1 5 3 6 6l1 4a1 1 0 0 0 1 1 1 1 0 0 0 1-1 11 11 0 0 0 1-13c-3-5-10-7-16-9a69 69 0 0 1-20-10c-3-3-12-8-12 0-1 6 4 12 9 16Z" opacity=".7" style="isolation:isolate" transform="translate(-5 -5)"/>
  <path fill="url(#q)" d="M237 100c3-6 6-13 11-17 6-5 14-7 22-8s17-3 26-2c18 0 35 7 49 17 12 8 24 19 38 18 12 6-5 23-9 21-9-4-28-21-37-25a122 122 0 0 0-71-4l-10 10c-4 6-7 12-9 19-1 5 1 11-6 9-15-5-8-29-4-38Z" opacity=".7" style="isolation:isolate" transform="translate(-5 -5)"/>
</svg>
