<svg id="Layer_1" data-name="Layer 1" xmlns="http://www.w3.org/2000/svg" xmlns:xlink="http://www.w3.org/1999/xlink" width="567.43" height="571.7" viewBox="0 0 567.43 571.7">
  <defs>
    <linearGradient id="linear-gradient" x1="232.39" y1="453.74" x2="348.21" y2="453.74" gradientTransform="translate(-42.81 -35.54) rotate(-6.35)" gradientUnits="userSpaceOnUse">
      <stop offset="0" stop-color="#ecc4d7"/>
      <stop offset="0.42" stop-color="#efd4d1"/>
      <stop offset="1" stop-color="#f2eac9"/>
    </linearGradient>
    <linearGradient id="linear-gradient-2" x1="289.69" y1="337.18" x2="429.19" y2="541.51" gradientTransform="matrix(1, 0, 0, 1, 0, 0)" xlink:href="#linear-gradient"/>
    <linearGradient id="linear-gradient-3" x1="294.94" y1="158.22" x2="322.72" y2="344.9" gradientTransform="matrix(1, 0, 0, 1, 0, 0)" xlink:href="#linear-gradient"/>
    <linearGradient id="linear-gradient-4" x1="301.83" y1="337.53" x2="312.21" y2="-76.74" gradientUnits="userSpaceOnUse">
      <stop offset="0" stop-opacity="0"/>
      <stop offset="0.99"/>
    </linearGradient>
    <linearGradient id="linear-gradient-5" x1="240.62" y1="108.84" x2="74.78" y2="221.71" xlink:href="#linear-gradient-4"/>
    <linearGradient id="linear-gradient-6" x1="244.06" y1="146.56" x2="433.53" y2="146.56" xlink:href="#linear-gradient-4"/>
    <linearGradient id="linear-gradient-7" x1="49.16" y1="360.38" x2="277" y2="360.38" gradientTransform="matrix(1, 0, 0, 1, 0, 0)" xlink:href="#linear-gradient"/>
    <linearGradient id="linear-gradient-8" x1="158.83" y1="241.75" x2="178.8" y2="241.75" xlink:href="#linear-gradient-4"/>
    <linearGradient id="linear-gradient-9" x1="-1130.94" y1="344.8" x2="-921.41" y2="344.8" gradientTransform="matrix(-1, 0, 0, 1, -590.01, 0)" xlink:href="#linear-gradient"/>
    <linearGradient id="linear-gradient-10" x1="435.65" y1="241.3" x2="407.92" y2="242.12" xlink:href="#linear-gradient-4"/>
    <linearGradient id="linear-gradient-11" x1="299.66" y1="202.87" x2="301.98" y2="320.57" xlink:href="#linear-gradient-4"/>
    <linearGradient id="linear-gradient-12" x1="295.63" y1="226.53" x2="296.21" y2="239.26" gradientUnits="userSpaceOnUse">
      <stop offset="0.02" stop-color="#fff" stop-opacity="0"/>
      <stop offset="0.58" stop-color="#fff" stop-opacity="0.39"/>
      <stop offset="0.68" stop-color="#fff" stop-opacity="0.68"/>
      <stop offset="1" stop-color="#fff"/>
    </linearGradient>
    <linearGradient id="linear-gradient-13" x1="217.76" y1="233.66" x2="195.38" y2="207.81" xlink:href="#linear-gradient-12"/>
    <linearGradient id="linear-gradient-14" x1="365.55" y1="238.58" x2="329.66" y2="216.97" xlink:href="#linear-gradient-12"/>
    <linearGradient id="linear-gradient-15" x1="303.93" y1="81.59" x2="301.33" y2="-233.59" xlink:href="#linear-gradient-12"/>
    <linearGradient id="linear-gradient-16" x1="421.14" y1="92.9" x2="543.28" y2="58.75" xlink:href="#linear-gradient-12"/>
    <linearGradient id="linear-gradient-17" x1="209.56" y1="100.28" x2="974.97" y2="168" xlink:href="#linear-gradient-12"/>
  </defs>
  <title>Analyze Market</title>
  <g>
    <path d="M560.86,351.85c11.21-30.19,18.14-65.42,2.32-93.47C552.43,239.32,533,227,513.62,216.72c-55.47-29.42-117.19-48.92-165.23-89.35-7.86-6.62-15.44-13.85-24.76-18.18-9.88-4.6-21-5.59-31.87-6.48-47-3.81-95.24-6.63-140.35,7.05s-87,47.32-97.49,93.27c-8.07,35.49,3.16,73.66-7.26,108.53C38,340.47,15.36,363.78,7.71,393-5.1,441.79,29.53,493.33,74.85,515.54s98.2,21.59,148.5,17.51c25.29-2.06,50.62-4.89,75.14-11.4,22-5.82,43.41-14.62,66.08-16.07,35.37-2.26,74.59,12.77,104.24-6.64,10.35-6.76,18.05-17.08,28.63-23.46,21.9-13.21,32.79-16.78,37.59-42.43C540.38,404.45,550.77,379,560.86,351.85Z" transform="translate(-5.02 -4.67)" fill="#578dfa" opacity="0.18" style="isolation: isolate"/>
    <path d="M254,369.09S101.46,387.39,85.7,425.82s-36.53,72.39-36.53,72.39S176.57,603,277.54,569.93,387,515.2,438,519s93.42-52.84,93.42-76.43-157.72-72-183.13-70.46S254,369.09,254,369.09Z" transform="translate(-5.02 -4.67)" fill="#578dfa"/>
    <path d="M257.57,367.63c0,5.4-1.46-3.49-3.62,1.46-2.88,6.58-7.7,25.6-10.89,32-5.49,11-.18,25.05,9.16,33.11s21.71,11.48,33.74,14.19c17.79,4,38.12,6.53,52.77-4.32,14-10.36,18-29.73,16.82-47.09a221.85,221.85,0,0,0-3.69-25.63L341.52,315a6.34,6.34,0,0,0-1-2.73c-1.13-1.47-3.24-1.64-5.09-1.67-19.35-.22-50.6.36-67.52,11.17C252.12,331.87,257.51,349.3,257.57,367.63Z" transform="translate(-5.02 -4.67)" fill="url(#linear-gradient)"/>
    <path d="M256.62,380.07c5.71,12.35,17.87,21.22,31.19,24s27.54-.2,39.25-7.13c9.58-5.67,17.82-14.26,21.2-24.87,1.89-6,2.2-12.3,2.5-18.55l.85-17.93c-5.43,7.87-15.29,11.45-24.76,12.78-23.85,3.36-44.61-5.3-66.92-11.86-10.48-3.08-10.28,3.32-9.44,12.19C251.48,359.19,252.14,370.38,256.62,380.07Z" transform="translate(-5.02 -4.67)" fill="url(#linear-gradient-2)"/>
    <path d="M218.65,305.39s38.79,64.16,65.89,67.17,67.9,1.89,96.75-65.6,34-157.28-12-173.27C369.3,133.69,143.8,73.48,218.65,305.39Z" transform="translate(-5.02 -4.67)" fill="url(#linear-gradient-3)"/>
    <path d="M377.91,308c-.82,4.3-1.85,9-5.2,11.78-4.61,3.88-11.7,2.62-17-.2-10.85-5.73-18.05-16.35-26.45-25.3a59,59,0,0,0-12.32-10.2l4.88,9.71a27.11,27.11,0,0,1,2.3,5.54,13.61,13.61,0,0,1,0,6.56,3.09,3.09,0,0,1-.57,1.34,3.31,3.31,0,0,1-1.66.91,32.54,32.54,0,0,1-8.11,1c-4.81.19-9.75.36-14.26-1.31-1.35-.5-2.83-1.41-2.95-2.85-.17-2,2.35-3.12,4.37-3.39,2.72,0,5.31-.34,8-.08,3.7.35,3.56.65,3.58-3.21,0-5.52-.08-11-.13-16.58a25.62,25.62,0,0,0-15.28-2.05C287,281.65,279.66,290.28,274,298.86s-10.92,18-19.66,23.49c-9.71,6.07-26.91,4.84-28.52-8.59-1.71-14.29,6.61-31.92,14.6-43.2a82.1,82.1,0,0,1,44-31.19c6.29-1.81,12.92-2.85,19.41-2,7.18.94,13.86,4.13,20.39,7.27l34.23,16.44c5.86,2.82,11.94,5.8,16,10.88C382.18,281.71,380.24,295.75,377.91,308Z" transform="translate(-5.02 -4.67)" fill="url(#linear-gradient-4)"/>
    <path d="M446.71,127c.17,1.63,1.77,2.65,3,3.79,5.09,4.88,2.94,13.83-1.88,19s-11.56,8.09-16.93,12.68a16.86,16.86,0,0,0-6.14,10.44c-.94,5.67.71,11.75.94,18.13a32.26,32.26,0,0,1-.24,5.36,94.63,94.63,0,0,1-16.62,42.28c-2.63,3.61-6.12,7.27-10.58,7.47-7.2.32-11.31-8-13.25-14.94a293.31,293.31,0,0,1-8.66-43.13q-1.05-8.25-1.61-16.54c-1.42,6.67-11.08,8.28-16.77,4.53-.32-.21-.63-.43-.94-.67-5.07-3.85-7.69-10.19-10.49-16-3-6.15-7.13-12.58-13.74-14.29-7.5-1.93-15.11,0-22.74-.31-11.77-.5-23.57-1.8-35.31-2.69-6.37-.48-13-.94-18.92,1.36a17.79,17.79,0,0,0-5.63,3.52c-3.12,2.89-5.1,6.85-4.56,11-11.92-.41-12.34,9.16-21.17,17.18s-24.57,15.45-17.7,25.2c7.14,10.16,1.73,16.85,1.07,28.85-1.1,19.93-7.22,39.2-13.29,58.23-9.2-13.17-18.57-26.7-22.71-42.21-2.09-7.8-3.42-15.47-4.85-23-2.25-12-4.73-23.81-10.72-35.62-2.36-4.65-5.27-9-6.94-14-2.5-7.38-2.09-15.38-1.65-23.15,1-16.59,2.32-34.36,12.67-47.37a38,38,0,0,1,14.14-10.69c7.57-3.59,15.67-5.77,22.62-11.08,3.72-2.85,6.28-7,8.33-11.57,3.77-8.44,5.88-18.57,10.44-25.74a78.53,78.53,0,0,1,33.63-28.83c22.82-10.43,49-11.08,73.87-7.69,20.58,2.82,41.22,8.47,58.32,20.25A157.5,157.5,0,0,1,402,44.2c15.34,14.95,29.74,31.08,50,36.71,6.83,1.9,14.84,3,18.7,8.94,4,6.16,1.21,14.7-3.8,20.07s-11.81,8.65-17.67,13.08C448,124,446.54,125.35,446.71,127Z" transform="translate(-5.02 -4.67)" fill="#3f3d56"/>
    <path d="M183.63,171.62c-3.64,6.45-6.36,14.21-3.81,21.17,3.47-2,7-3.9,10.43-5.85L167,222.22c-2.25-12-4.73-23.81-10.72-35.62-2.36-4.65-5.27-9-6.94-14-2.5-7.38-2.09-15.38-1.65-23.15,1-16.59,2.32-34.36,12.67-47.37a38,38,0,0,1,14.14-10.69,13.19,13.19,0,0,1,4.06,3c5.41,5.9,6.74,15.32,8.94,22.68,3.35,11.13,8.91,23,6.13,34.82C191.91,159.08,187.26,165.17,183.63,171.62Z" transform="translate(-5.02 -4.67)" fill="url(#linear-gradient-5)"/>
    <path d="M428.17,150.15c-4.79,6.38-4.54,14.56-3.45,22.76.45,3.38,1,6.76,1.49,10,.36,2.71.55,5.67-.55,8.11a8.24,8.24,0,0,1-.75,1.28c-3.45,4.71-10.72,3.24-16.21,1.3-13.47-4.79-23.37-3.53-32.39-5.54-6.25-1.41-12.08-4.37-18.38-12a2.74,2.74,0,0,0-.94-.67c-5.07-3.85-7.69-10.19-10.49-16-3-6.15-7.13-12.58-13.74-14.29-7.5-1.93-15.11,0-22.74-.31-11.77-.5-23.57-1.8-35.31-2.69-6.37-.48-13-.94-18.92,1.36a17.79,17.79,0,0,0-5.63,3.52c-2.56-.58-4.48-2.41-5.42-6.47-2.33-10.22,1.49-24.42,8.93-31.7S272,99.6,282.35,98.58c22-2.2,45.58-1.21,64.07,10.88C354.9,115,362,122.66,371,127.3c16.41,8.45,36.06,5.49,54.38,7.71,3.09.37,6.69,1.29,7.84,4.19C434.74,143.13,430.71,146.77,428.17,150.15Z" transform="translate(-5.02 -4.67)" fill="url(#linear-gradient-6)"/>
    <path d="M275.66,202c-2.14-4.82-6-8.71-10-12.05-16.31-13.3-39-19.11-59.24-13.33a40.41,40.41,0,0,0-11.11,4.88c-5.58,3.66-9.81,9-13.54,14.57C159.58,229,152.17,269.51,149,309c-.71,8.94.26,18.46-3.39,26.64C115,404.21,48.37,490.38,49.17,498.21c23.91,20,65.47,47.44,84.3,48.13,10.56-19.41,51.32-158.91,59.88-179.28,3.37-8,9.35-25.56,14.29-32.7,13.27-19.2,34.05-19.25,49.72-36.53,3.95-4.35,7.44-9.33,8.76-15.05,1.12-4.87.6-9.94.36-14.93a132.83,132.83,0,0,1,3.17-35.94C271.92,221.92,280.21,212.28,275.66,202Z" transform="translate(-5.02 -4.67)" fill="url(#linear-gradient-7)"/>
    <rect x="157.09" y="231.48" width="19.97" height="20.55" rx="8.74" fill="#578dfa"/>
    <rect x="158.83" y="231.48" width="19.97" height="20.55" rx="8.74" fill="url(#linear-gradient-8)"/>
    <path d="M332.74,202c2.14-4.82,6-8.71,10.05-12.05,16.3-13.3,39-19.11,59.23-13.33a40.48,40.48,0,0,1,11.12,4.88c5.58,3.66,9.8,9,13.53,14.57C448.83,229,456.24,269.51,459.4,309c.71,8.94-.27,18.46,3.39,26.64,30.59,68.55,76.95,102.82,76.15,110.65,13.73,44.25-47.34,71.09-72.19,68.73-10.56-19.41-43.13-127.61-51.7-148-3.36-8-9.35-25.56-14.29-32.7-13.26-19.2-34-19.25-49.72-36.53-3.94-4.35-7.43-9.33-8.75-15.05-1.13-4.87-.61-9.94-.37-14.93a133.22,133.22,0,0,0-3.16-35.94C336.48,221.92,328.2,212.28,332.74,202Z" transform="translate(-5.02 -4.67)" fill="url(#linear-gradient-9)"/>
    <rect x="412.55" y="231.48" width="19.97" height="20.55" rx="8.74" fill="#578dfa"/>
    <rect x="410.53" y="231.48" width="19.97" height="20.55" rx="8.74" fill="url(#linear-gradient-10)"/>
    <path d="M273.63,214s22.38,14.66,52.48-1.16V263s-26.63-18.91-49.78,0Z" transform="translate(-5.02 -4.67)" fill="#578dfa"/>
    <path d="M273.63,214s22.38,14.66,52.48-1.16V263s-26.63-18.91-49.78,0Z" transform="translate(-5.02 -4.67)" fill="url(#linear-gradient-11)"/>
    <rect x="272.09" y="226.17" width="47.75" height="15.24" fill="#578dfa"/>
    <rect x="272.09" y="226.17" width="47.75" height="15.24" opacity="0.69" fill="url(#linear-gradient-12)" style="isolation: isolate"/>
    <circle cx="222.88" cy="239.58" r="54.99" fill="#578dfa"/>
    <circle cx="222.88" cy="239.58" r="54.99" opacity="0.69" fill="url(#linear-gradient-13)" style="isolation: isolate"/>
    <circle cx="222.55" cy="240.11" r="47.61" fill="#fff"/>
    <circle cx="367.21" cy="239.58" r="54.99" fill="#578dfa"/>
    <circle cx="367.21" cy="239.58" r="54.99" opacity="0.69" fill="url(#linear-gradient-14)" style="isolation: isolate"/>
    <circle cx="366.87" cy="240.11" r="47.61" fill="#fff"/>
    <rect x="285.69" y="208.71" width="14.47" height="15.63" rx="6.23" fill="#578dfa"/>
    <polygon points="245.59 261.12 194.91 261.12 194.91 257.01 241.47 257.01 241.47 208.52 245.59 208.52 245.59 261.12" fill="#578dfa"/>
    <rect x="196.74" y="232.06" width="9.74" height="21.8" fill="#578dfa"/>
    <rect x="210.25" y="216.03" width="9.74" height="37.83" fill="#578dfa"/>
    <rect x="224.52" y="223.98" width="9.74" height="29.88" fill="#578dfa"/>
    <path d="M373.78,217.58A27.36,27.36,0,1,1,345.93,245c0-.93.05-1.84.14-2.74l27.22,2.69Z" transform="translate(-5.02 -4.67)" fill="#578dfa" opacity="0.18" style="isolation: isolate"/>
    <path d="M371.19,215.14a4.87,4.87,0,0,1,.54,0l-.49,27.34L344,239.81A27.37,27.37,0,0,1,371.19,215.14Z" transform="translate(-5.02 -4.67)" fill="#578dfa" opacity="0.47" style="isolation: isolate"/>
    <path d="M402,44.2a31,31,0,0,1-5.42,5.12c-14.18,10.31-33.92,4.26-50.19-2.25-17.89-7.17-36.12-14.56-55.35-15.77s-40,4.87-51.65,20.23c-6.61,8.71-11.94,21.18-22.85,21.78a15.07,15.07,0,0,1-11.18-4.55c3.77-8.44,5.88-18.57,10.44-25.74a78.53,78.53,0,0,1,33.63-28.83c22.82-10.43,49-11.08,73.87-7.69,20.58,2.82,41.22,8.47,58.32,20.25A157.5,157.5,0,0,1,402,44.2Z" transform="translate(-5.02 -4.67)" opacity="0.69" fill="url(#linear-gradient-15)" style="isolation: isolate"/>
    <path d="M429.81,87.75c6.12,4.12,13.75,5.3,21.12,5.64a29.68,29.68,0,0,1,8,1c2.56.85,5,2.67,5.73,5.25.46,1.54.34,3.29,1.27,4.6a1.06,1.06,0,0,0,.61.47,1.17,1.17,0,0,0,1-.5,11.31,11.31,0,0,0,1.22-13.44c-3.24-5-9.75-6.52-15.45-8.36A69,69,0,0,1,433.17,72c-3.57-2.68-11.76-8.29-12.28-.27C420.48,78.07,424.77,84.37,429.81,87.75Z" transform="translate(-5.02 -4.67)" opacity="0.69" fill="url(#linear-gradient-16)" style="isolation: isolate"/>
    <path d="M237.08,99.6c2.65-6,5.61-12.17,10.63-16.43,6-5.07,14.08-6.75,21.82-8,8.88-1.49,17.87-2.71,26.88-2.39C313.93,73.36,331,79.9,345.3,90c11.63,8.25,23.63,19.49,37.76,17.53,12.13,6-4.83,23.13-9.29,21.3-9.15-3.76-27.83-21.19-36.89-25.17-17.8-7.82-38-7.3-57.44-6-4.61.3-9.36.68-13.46,2.82s-7.21,5.91-9.89,9.74c-3.88,5.55-7.34,11.67-8.92,18.31-1.22,5.09.92,11.88-5.77,9.6C226.27,133,232.85,109.24,237.08,99.6Z" transform="translate(-5.02 -4.67)" opacity="0.69" fill="url(#linear-gradient-17)" style="isolation: isolate"/>
  </g>
</svg>
