<svg xmlns="http://www.w3.org/2000/svg" xmlns:xlink="http://www.w3.org/1999/xlink" data-name="Layer 1" viewBox="0 0 407.2 332.4">
  <defs>
    <linearGradient id="a" x1="154.4" x2="204.7" y1="220.6" y2="239.8" gradientUnits="userSpaceOnUse">
      <stop offset="0"/>
      <stop offset=".1" stop-opacity=".8"/>
      <stop offset="1" stop-opacity="0"/>
    </linearGradient>
    <linearGradient xlink:href="#a" id="b" x1="128.9" x2="113.7" y1="276.1" y2="184.1"/>
    <linearGradient xlink:href="#a" id="c" x1="134.4" x2="159.5" y1="270.9" y2="214.4"/>
    <linearGradient xlink:href="#a" id="d" x1="263" x2="219.9" y1="213.1" y2="357.8"/>
    <linearGradient xlink:href="#a" id="e" x1="85.3" x2="127" y1="220" y2="417.8"/>
    <linearGradient xlink:href="#a" id="f" x1="264.9" x2="265.5" y1="268.1" y2="240.8" gradientTransform="rotate(180 265 255)"/>
    <linearGradient xlink:href="#a" id="g" x1="307.7" x2="311.7" y1="284.9" y2="182.6"/>
  </defs>
  <rect width="370.4" height="237.3" x="36.2" y="12.3" fill="#578dfa" opacity=".5" rx="8.9" style="isolation:isolate"/>
  <path fill="#578dfa" d="M404 280c0 7-2 15-6 22-6 8-15 13-23 18l-25 13c-10 6-22 12-34 12-9 0-17-3-25-5-39-11-80-13-120-10l-61 7c-17 3-36 11-51 1-16-10-26-27-35-43-8-15-16-29-18-45-4-25 5-50 20-70a161 161 0 0 1 15-17v90a9 9 0 0 0 9 9h353a70 70 0 0 1 1 18ZM272 25h-94a57 57 0 0 1 12-7c7-3 15-4 23-5 21-1 41 3 59 12Z" opacity=".2" style="isolation:isolate" transform="translate(-5 -13)"/>
  <path fill="#578dfa" d="M181 220a15 15 0 0 0 4 3 15 15 0 0 0 6 2l32 4a2 2 0 0 1 0 1 2 2 0 0 1 1 1 56 56 0 0 1-2 18 2 2 0 0 1-1 1 3 3 0 0 1-2 1h-32a22 22 0 0 1-5-1l-8-5-26-25a67 67 0 0 1-3-11c-1-3 6-4 6-8a24 24 0 0 1 1-7 13 13 0 0 1 3-6c1-1-1-8 1-8 1 6 9 18 13 23a194 194 0 0 0 12 17Z"/>
  <path fill="url(#a)" d="M186 232a15 15 0 0 0 3 4 15 15 0 0 0 7 1l31 5a2 2 0 0 1 1 1 2 2 0 0 1 1 1 56 56 0 0 1-3 18 2 2 0 0 1 0 1 3 3 0 0 1-2 0l-32 1a22 22 0 0 1-5-1l-8-5-26-25a67 67 0 0 1-4-11c-1-4 7-4 7-8a24 24 0 0 1 1-7 13 13 0 0 1 3-6c1-1-1-8 1-8 1 6 9 18 13 23a194 194 0 0 0 12 16Z" transform="translate(-5 -13)"/>
  <path fill="#578dfa" d="M101 169a59 59 0 0 0-6 6c-5 6-8 12-11 19-7 17-13 35-11 54a7 7 0 0 0 1 3 6 6 0 0 0 3 2l11 1a751 751 0 0 0 50-2 10 10 0 0 0 3-4c4-7 5-15 8-23 4-10 15-19 13-30-10-44-57-30-61-26Z"/>
  <path fill="url(#b)" d="M105 182a59 59 0 0 0-6 6c-4 5-7 12-10 18-7 17-13 36-11 54a7 7 0 0 0 0 4 6 6 0 0 0 4 2l11 1a751 751 0 0 0 50-2 10 10 0 0 0 3-4c4-7 5-16 8-23 4-10 15-19 12-30-9-45-56-30-61-26Z" transform="translate(-5 -13)"/>
  <path fill="#ffdad2" d="M166 132c-2 8-4 17-8 24a18 18 0 0 1-7 7c-3 1-7 1-10-1-1-1-2-2-4-1l-2 3a30 30 0 0 0 1 8 7 7 0 0 1 0 3 4 4 0 0 1-4 3 8 8 0 0 1-4-1 15 15 0 0 1-9-11 35 35 0 0 1 0-4l-1-22c0-7 2-14 7-20a31 31 0 0 1 10-6c5-3 11-5 17-4a17 17 0 0 1 12 8c3 5 3 8 2 14Z"/>
  <path fill="#3f3d56" d="M181 114a17 17 0 0 0-9-17l-9-2c-6-2-13-5-20-6s-14 2-17 8l-3 3a5 5 0 0 1-2 0c-4-1-9 3-11 7-3 7-3 15-2 22 0 7 2 15 8 19h2a2 2 0 0 0 0-1 30 30 0 0 0 1-8v-6c1-2 2-4 4-4s3 2 4 4a13 13 0 0 1 0 6l1-1c1-7 2-14 6-18a8 8 0 0 1 2 3 5 5 0 0 1 5-1 12 12 0 0 1 4 2c10 8 33 6 36-10Z"/>
  <path fill="#578dfa" d="M104 179c-4 3-5 7-5 11s4 31 8 38c3 6 10 21 20 25 3 1 47 1 68-1l-1-15a3 3 0 0 0 0-2l-2-4c-12 0-24 4-36 4a21 21 0 0 1-6 0 15 15 0 0 1-4-2c-9-5-14-15-18-25-2-8-5-16-9-23-1-3-2-5-5-6-3-2-7-2-10 0Z"/>
  <path fill="url(#c)" d="M109 192c-4 3-5 7-6 11s5 30 9 38c3 6 10 21 20 25 3 1 47 1 68-2l-1-14a3 3 0 0 0 0-2l-2-4c-12 0-25 4-37 4a21 21 0 0 1-5 0 15 15 0 0 1-4-2c-9-5-14-16-18-26-3-7-5-15-9-22-1-3-2-6-5-7-4-1-7-1-10 1Z" transform="translate(-5 -13)"/>
  <path fill="#ffdad2" d="M193 230c6 0 13 1 17 6a3 3 0 0 1 1 1 3 3 0 0 1 0 2c-3 4-8 5-12 6a30 30 0 0 0-6 3 10 10 0 0 1-4 2c-3 1-6-2-7-5-2-3-4-9-1-12 2-2 9-2 12-3Zm52-1a9 9 0 0 1 2 2 4 4 0 0 1 1 4 5 5 0 0 1-2 2c-6 3-12 3-18 7a10 10 0 0 1-4 1 5 5 0 0 1-4-2 14 14 0 0 1-2-4c-7-17 17-16 27-10Z"/>
  <path fill="#fff" d="M86 221h26v21a8 8 0 0 1-7 8H94a8 8 0 0 1-8-8v-21Z"/>
  <path fill="none" stroke="#fff" stroke-miterlimit="10" stroke-width="3.3" d="M110 226h8a6 6 0 0 1 6 6v3a6 6 0 0 1-6 6h-8v-15Z"/>
  <rect width="362.1" height="11.1" x="45.1" y="249.3" fill="#578dfa" rx="5.6"/>
  <path fill="#578dfa" d="M139 261h198v68H139z"/>
  <path fill="#578dfa" d="M62 261h78v68H62z"/>
  <path fill="url(#d)" d="M140 261h197v68H140z"/>
  <path fill="url(#e)" d="M62 261h78v68H62z"/>
  <path fill="#578dfa" d="M411 34v44H41V34a9 9 0 0 1 9-9h353a9 9 0 0 1 8 9Z" opacity=".2" style="isolation:isolate" transform="translate(-5 -13)"/>
  <rect width="141.5" height="13" x="194.5" y="248.9" fill="#578dfa" rx="6.5" transform="rotate(-180 263 249)"/>
  <rect width="141.5" height="13" x="194.5" y="248.9" fill="url(#f)" rx="6.5" transform="rotate(-180 263 249)"/>
  <path fill="#578dfa" d="M241 249h98l26-66a6 6 0 0 0-5-8h-78a19 19 0 0 0-17 12Z"/>
  <path fill="#578dfa" d="M246 249h93l25-62a6 6 0 0 0-5-8h-74a18 18 0 0 0-16 11Z"/>
  <path fill="url(#g)" d="M251 262h93l25-63a6 6 0 0 0-5-7h-74a18 18 0 0 0-16 11Z" transform="translate(-5 -13)"/>
  <path fill="#fff" d="M213 155h139v7H213z" opacity=".5"/>
  <path fill="#fff" d="M213 141h99v8h-99zm112 0h66v8h-66zm-36-49h102v7H289z"/>
  <path fill="#fff" d="M268 104h109v7H268z" opacity=".5"/>
  <path fill="#fff" d="M215 92h67v7h-67zm29 24h147v7H244z"/>
  <path fill="#fff" d="M215 116h21v7h-21zm79 12h97v7h-97z" opacity=".5"/>
  <path fill="#fff" d="M215 128h67v7h-67zm0-24h43v7h-43zm37-35h102v6H252z"/>
  <path fill="#fff" d="M231 81h109v7H231z" opacity=".5"/>
  <path fill="#fff" d="M178 69h67v6h-67zm73-15h102v7H251zm-74-13h67v7h-67zm0-12h67v7h-67zm1 52h43v7h-43z"/>
</svg>
