<svg xmlns="http://www.w3.org/2000/svg" xmlns:xlink="http://www.w3.org/1999/xlink" data-name="Layer 1" viewBox="0 0 357.7 361.7">
  <defs>
    <linearGradient id="a" x1="78.6" x2="211.8" y1="225.3" y2="225.3" gradientUnits="userSpaceOnUse">
      <stop offset="0" stop-opacity="0"/>
      <stop offset="1"/>
    </linearGradient>
    <linearGradient id="c" x1="192.2" x2="400.8" y1="241.3" y2="243.9" gradientUnits="userSpaceOnUse">
      <stop offset="0" stop-color="#fff" stop-opacity="0"/>
      <stop offset=".3" stop-color="#fff" stop-opacity=".4"/>
      <stop offset=".7" stop-color="#fff" stop-opacity=".7"/>
      <stop offset="1" stop-color="#fff"/>
    </linearGradient>
    <linearGradient xlink:href="#a" id="d" x1="310.1" x2="178.1" y1="364.7" y2="260.4"/>
    <linearGradient xlink:href="#a" id="e" x1="304.9" x2="186.1" y1="360.2" y2="266.3"/>
    <linearGradient xlink:href="#a" id="f" x1="316.5" x2="282.1" y1="269.6" y2="373.3"/>
    <linearGradient xlink:href="#a" id="g" x1="149.2" x2="209" y1="192.3" y2="192.3"/>
    <linearGradient xlink:href="#a" id="h" x1="249.6" x2="226.1" y1="70" y2="76.5"/>
    <linearGradient id="b" x1="252.1" x2="258.7" y1="42.1" y2="42.1" gradientUnits="userSpaceOnUse">
      <stop offset="0" stop-color="#e5c5d5"/>
      <stop offset=".4" stop-color="#ead4d1"/>
      <stop offset="1" stop-color="#f0e9cb"/>
    </linearGradient>
    <linearGradient xlink:href="#a" id="i" x1="256.5" x2="255.8" y1="48.7" y2="32.7"/>
    <linearGradient xlink:href="#b" id="j" x1="251.6" x2="266.2" y1="33" y2="33"/>
    <linearGradient xlink:href="#b" id="k" x1="266.7" x2="272.9" y1="66" y2="66"/>
    <linearGradient xlink:href="#b" id="l" x1="245.3" x2="257.6" y1="77" y2="77"/>
    <linearGradient xlink:href="#c" id="m" x1="228.2" x2="215.9" y1="152.8" y2="281.7"/>
    <linearGradient xlink:href="#c" id="n" x1="229.4" x2="217.1" y1="152.9" y2="281.8"/>
    <linearGradient xlink:href="#c" id="o" x1="230.6" x2="218.3" y1="153" y2="282"/>
    <linearGradient xlink:href="#c" id="p" x1="231.8" x2="219.5" y1="153.1" y2="282.1"/>
    <linearGradient xlink:href="#c" id="q" x1="233" x2="220.7" y1="153.2" y2="282.2"/>
    <linearGradient xlink:href="#c" id="r" x1="234.2" x2="221.9" y1="153.3" y2="282.3"/>
    <linearGradient xlink:href="#c" id="s" x1="235.4" x2="223.1" y1="153.4" y2="282.4"/>
    <linearGradient xlink:href="#c" id="t" x1="199.7" x2="198.2" y1="249.3" y2="273.2"/>
    <linearGradient xlink:href="#c" id="u" x1="212.2" x2="210.7" y1="250.1" y2="274"/>
    <linearGradient xlink:href="#c" id="v" x1="235.9" x2="234.4" y1="251.6" y2="275.5"/>
    <linearGradient xlink:href="#c" id="w" x1="224.4" x2="223" y1="250.8" y2="274.8"/>
    <linearGradient xlink:href="#c" id="x" x1="253.3" x2="253.6" y1="258" y2="290.8"/>
    <linearGradient xlink:href="#c" id="y" x1="263.8" x2="264" y1="261.8" y2="318.3"/>
    <linearGradient xlink:href="#c" id="z" x1="258.1" x2="259.4" y1="253.9" y2="271.7"/>
    <linearGradient xlink:href="#a" id="A" x1="240.1" x2="197.2" y1="296.3" y2="389.3"/>
  </defs>
  <path fill="#578dfa" d="M165 334a272 272 0 0 0 124 30c16 0 32-1 47-7 39-14 65-58 59-99-3-14-8-29-8-43 0-16 7-30 12-45a135 135 0 0 0 5-51c-2-26-13-52-33-68-9-6-19-10-28-14l-44-20c-26-11-57-22-82-7-21 13-28 43-48 59-25 20-67 16-83 43-14 23 0 53-9 79-3 8-8 15-13 23-15 24-31 77 7 90 11 4 25 1 37 3 21 5 38 17 57 27Z" opacity=".2" style="isolation:isolate" transform="translate(-47 -2)"/>
  <path fill="#578dfa" d="M31 275s27-8 24-33 4-72 19-71h90v58h-49s3 19-6 32-13 12-13 12Z"/>
  <path fill="url(#a)" d="M79 277s26-7 24-33 3-72 18-71h91v58h-50s4 19-5 33-14 11-14 11Z" transform="translate(-47 -2)"/>
  <path fill="#578dfa" d="M145 150h120s13 3 14 21v157l-89 1a21 21 0 0 1-2 0 27 27 0 0 1-26-27V166s-2-14-17-16Z"/>
  <path fill="url(#c)" d="M192 153h120s13 3 15 20v157l-89 2a21 21 0 0 1-3 0 27 27 0 0 1-26-27V169s-2-14-17-16Z" transform="translate(-47 -2)"/>
  <path fill="url(#d)" d="M243 293s-14-1-14 18 13 15 13 15l2-1s17-11 8-24c0 0-4-7-9-8Z" transform="translate(-47 -2)"/>
  <path fill="url(#e)" d="M245 296s-13-1-13 16 11 13 11 13h3s15-10 6-22c0 0-3-6-7-7Z" transform="translate(-47 -2)"/>
  <path fill="#578dfa" d="M196 291h117s8 3 7 17-15 21-15 21H190s12-6 12-20-6-18-6-18Z"/>
  <path fill="url(#f)" d="M243 293h117s9 3 8 18-16 21-16 21H238s11-7 11-20-6-19-6-19Z" transform="translate(-47 -2)"/>
  <path fill="#578dfa" d="M74 171s8 1 7 13-2 45 14 45 26-2 26-11l1-48Z"/>
  <path fill="#578dfa" d="M145 150s-21-1-23 20-1 48-1 48-3 11-19 11h60v-63s-3-14-17-16Z"/>
  <path fill="url(#g)" d="M192 153s-21-1-23 20-1 47-1 47-3 11-19 12h60v-63s-2-15-17-16Z" transform="translate(-47 -2)"/>
  <path fill="#578dfa" d="M199 42c-4 1-7 5-7 9v26l1 6c2 2 4 4 7 4l12 1 5-1a6 6 0 0 0 2-4 44 44 0 0 0 1-9V58c1-6 0-13-6-16l-5-1-10 1Z"/>
  <path fill="url(#h)" d="M246 82c-1 1 0 4 2 5l-7-1a9 9 0 0 1-1-4V69a18 18 0 0 1 0-6l5-8 1 6a50 50 0 0 0 0 10 9 9 0 0 0 1 2c1 3 5 4 5 6 1 4-4 4-6 3Z" transform="translate(-47 -2)"/>
  <path fill="url(#b)" d="m252 46 1 2 2 2a2 2 0 0 0 1-1 4 4 0 0 0 2-1 4 4 0 0 0 1-2c0-3-1-12-4-11-3 0-3 9-3 11Z" transform="translate(-47 -2)"/>
  <path fill="url(#i)" d="m256 46 2 1 1-2v-3a2 2 0 0 0-1-1c-1-1-5-3-5-1a9 9 0 0 0 3 6Z" transform="translate(-47 -2)"/>
  <path fill="url(#j)" d="M266 29a61 61 0 0 1-2 8 13 13 0 0 1-2 4 5 5 0 0 1-2 2 5 5 0 0 1-5-1 8 8 0 0 1-3-4 11 11 0 0 1 0-3 15 15 0 0 1 1-8 7 7 0 0 1 2-3 7 7 0 0 1 5-1 16 16 0 0 1 5 2c2 1 1 3 1 4Z" transform="translate(-47 -2)"/>
  <path fill="#3e3e54" d="M218 19a8 8 0 0 1 2 2l2 2a2 2 0 0 1 0 1 2 2 0 0 1 0 1 4 4 0 0 1-3 2 8 8 0 0 1-4-1 2 2 0 0 1-2 1l-2-1a3 3 0 0 0-3 2h-1l-1-1a1 1 0 0 0-1 0 3 3 0 0 0 0 1l1 2h-1l-1 1a3 3 0 0 1 0 1 3 3 0 0 1-1-2v-4a7 7 0 0 1 0-3 9 9 0 0 1 1-2 9 9 0 0 1 2-1 7 7 0 0 1 3-2 27 27 0 0 1 5 0 7 7 0 0 1 4 1Z"/>
  <path fill="#578dfa" d="M225 53c2 4 2 8 2 12a29 29 0 0 1-1 5 8 8 0 0 1-1 4 5 5 0 0 1-4 2 3 3 0 0 1-1-1l-2-4V55c0-3-5-10-4-12 0-3 6 2 8 3a16 16 0 0 1 3 7Z"/>
  <path fill="#3e3e54" d="M225 58v-1a1 1 0 0 0-1 0 2 2 0 0 0-1 2v3c0 1-1 2 1 2l1-6Z"/>
  <path fill="url(#k)" d="M269 65a3 3 0 0 0-2 1v1a2 2 0 0 0 1 0 19 19 0 0 0 4 1 1 1 0 0 0 0-1 1 1 0 0 0 1 0l-1-2a11 11 0 0 0-1 0 13 13 0 0 0-2 0Z" transform="translate(-47 -2)"/>
  <path fill="#578dfa" d="M185 57c-2 2-3 4-3 7a8 8 0 0 0 2 4c4 4 10 6 15 8a1 1 0 0 0 1 0c2-2 0-5-1-7l-6-6a1 1 0 0 1 0-1c3-3 6-6 7-9 0-3-1-11-5-9l-5 6Z"/>
  <path fill="#3e3e54" d="m193 88 5 58-7 4 13-1 2-49h5l4 50 14 1-7-6V84h-27c-2 0-2 2-2 4Z"/>
  <path fill="#fff" d="M210 65a2 2 0 0 1 3-2l15 1a3 3 0 0 1 2 1 3 3 0 0 1 0 2 137 137 0 0 1-8 17 2 2 0 0 1 0 1 2 2 0 0 1-2 0 144 144 0 0 1-17 0h-1c-1-1 1-3 1-4l2-5 5-11Z"/>
  <path fill="url(#l)" d="m251 73 2 1v1a1 1 0 0 0 1 0h2a2 2 0 0 1 1 1 2 2 0 0 1 0 2 7 7 0 0 1-1 2 4 4 0 0 1-1 1 4 4 0 0 1-1 0 10 10 0 0 1-6-1 5 5 0 0 1-2-3c-2-3 3-3 5-4Z" transform="translate(-47 -2)"/>
  <rect width="80.7" height="5.8" x="186.1" y="168.9" fill="url(#m)" rx="2.9"/>
  <rect width="80.7" height="5.8" x="186.1" y="181.6" fill="url(#n)" rx="2.9"/>
  <rect width="80.7" height="5.8" x="186.1" y="194.2" fill="url(#o)" rx="2.9"/>
  <rect width="80.7" height="5.8" x="186.1" y="206.9" fill="url(#p)" rx="2.9"/>
  <rect width="80.7" height="5.8" x="186.1" y="219.6" fill="url(#q)" rx="2.9"/>
  <rect width="80.7" height="5.8" x="186.1" y="232.3" fill="url(#r)" rx="2.9"/>
  <rect width="80.7" height="5.8" x="186.1" y="245" fill="url(#s)" rx="2.9"/>
  <path fill="url(#t)" d="M194 258h9v26h-9z"/>
  <path fill="url(#u)" d="M206 266h9v18h-9z"/>
  <path fill="url(#v)" d="M230 259h9v25h-9z"/>
  <path fill="url(#w)" d="M218 272h9v12h-9z"/>
  <path fill="url(#x)" d="M248 264h11v20h-11z"/>
  <path fill="url(#y)" d="M259 264h10v20h-10z"/>
  <path fill="url(#z)" d="M248 259h21v5h-21z"/>
  <path fill="url(#A)" d="M210 311c0 3 5 16 17 19 6 2 12 3 17 1a12 12 0 0 0 5-3 9 9 0 0 0 0-11 16 16 0 0 0-4-3c-4-3-10-7-15-7l-20 4Z" transform="translate(-47 -2)"/>
</svg>
