<svg id="Layer_1" data-name="Layer 1" xmlns="http://www.w3.org/2000/svg" xmlns:xlink="http://www.w3.org/1999/xlink" viewBox="0 0 357.68 361.74"><defs><linearGradient id="linear-gradient" x1="78.6" y1="225.34" x2="211.75" y2="225.34" gradientUnits="userSpaceOnUse"><stop offset="0" stop-opacity="0"/><stop offset="0.99"/></linearGradient><linearGradient id="linear-gradient-2" x1="192.17" y1="241.25" x2="400.82" y2="243.89" gradientUnits="userSpaceOnUse"><stop offset="0.02" stop-color="#fff" stop-opacity="0"/><stop offset="0.32" stop-color="#fff" stop-opacity="0.39"/><stop offset="0.68" stop-color="#fff" stop-opacity="0.68"/><stop offset="1" stop-color="#fff"/></linearGradient><linearGradient id="linear-gradient-3" x1="310.14" y1="364.73" x2="178.09" y2="260.41" xlink:href="#linear-gradient"/><linearGradient id="linear-gradient-4" x1="304.9" y1="360.17" x2="186.08" y2="266.31" xlink:href="#linear-gradient"/><linearGradient id="linear-gradient-5" x1="316.48" y1="269.6" x2="282.15" y2="373.26" xlink:href="#linear-gradient"/><linearGradient id="linear-gradient-6" x1="149.21" y1="192.25" x2="208.96" y2="192.25" xlink:href="#linear-gradient"/><linearGradient id="linear-gradient-7" x1="249.64" y1="70.03" x2="226.14" y2="76.55" xlink:href="#linear-gradient"/><linearGradient id="linear-gradient-8" x1="252.05" y1="42.12" x2="258.67" y2="42.12" gradientUnits="userSpaceOnUse"><stop offset="0" stop-color="#e5c5d5"/><stop offset="0.42" stop-color="#ead4d1"/><stop offset="1" stop-color="#f0e9cb"/></linearGradient><linearGradient id="linear-gradient-9" x1="256.52" y1="48.74" x2="255.75" y2="32.67" xlink:href="#linear-gradient"/><linearGradient id="linear-gradient-10" x1="251.63" y1="33" x2="266.2" y2="33" xlink:href="#linear-gradient-8"/><linearGradient id="linear-gradient-11" x1="266.74" y1="66.05" x2="272.95" y2="66.05" xlink:href="#linear-gradient-8"/><linearGradient id="linear-gradient-12" x1="245.33" y1="76.98" x2="257.63" y2="76.98" xlink:href="#linear-gradient-8"/><linearGradient id="linear-gradient-13" x1="228.22" y1="152.75" x2="215.89" y2="281.73" xlink:href="#linear-gradient-2"/><linearGradient id="linear-gradient-14" x1="229.42" y1="152.87" x2="217.09" y2="281.84" xlink:href="#linear-gradient-2"/><linearGradient id="linear-gradient-15" x1="230.62" y1="152.98" x2="218.29" y2="281.96" xlink:href="#linear-gradient-2"/><linearGradient id="linear-gradient-16" x1="231.82" y1="153.1" x2="219.49" y2="282.07" xlink:href="#linear-gradient-2"/><linearGradient id="linear-gradient-17" x1="233.02" y1="153.21" x2="220.69" y2="282.19" xlink:href="#linear-gradient-2"/><linearGradient id="linear-gradient-18" x1="234.22" y1="153.33" x2="221.9" y2="282.3" xlink:href="#linear-gradient-2"/><linearGradient id="linear-gradient-19" x1="235.42" y1="153.44" x2="223.1" y2="282.42" xlink:href="#linear-gradient-2"/><linearGradient id="linear-gradient-20" x1="199.67" y1="249.32" x2="198.21" y2="273.24" xlink:href="#linear-gradient-2"/><linearGradient id="linear-gradient-21" x1="212.17" y1="250.09" x2="210.7" y2="274.01" xlink:href="#linear-gradient-2"/><linearGradient id="linear-gradient-22" x1="235.88" y1="251.55" x2="234.42" y2="275.46" xlink:href="#linear-gradient-2"/><linearGradient id="linear-gradient-23" x1="224.43" y1="250.84" x2="222.96" y2="274.76" xlink:href="#linear-gradient-2"/><linearGradient id="linear-gradient-24" x1="253.35" y1="257.97" x2="253.64" y2="290.84" xlink:href="#linear-gradient-2"/><linearGradient id="linear-gradient-25" x1="263.83" y1="261.76" x2="263.98" y2="318.25" xlink:href="#linear-gradient-2"/><linearGradient id="linear-gradient-26" x1="258.13" y1="253.92" x2="259.45" y2="271.67" xlink:href="#linear-gradient-2"/><linearGradient id="linear-gradient-27" x1="240.09" y1="296.3" x2="197.24" y2="389.26" xlink:href="#linear-gradient"/></defs><title>Analyze Report 2</title><path d="M164.9,334a272.16,272.16,0,0,0,124,30.22c16.08,0,32.39-1.45,47.48-7,38.92-14.37,64.6-58.1,58.21-99.09-2.26-14.54-8.07-28.64-7.7-43.35.39-15.48,7.55-29.84,12.1-44.63a135.47,135.47,0,0,0,5.45-51.37c-2.25-25.9-13-52.18-33.94-67.63-8.41-6.22-18.09-10.45-27.68-14.63L298.73,17.24c-26-11.34-57.09-22.44-81.27-7.62-21.91,13.43-28.55,43-48.64,59C143.88,88.52,102,84.81,85.71,112.23c-13.58,22.88.14,53.24-8.61,78.36-2.92,8.37-8.18,15.66-12.93,23.14C48.83,238,32.63,290.85,71.08,303.9c11.41,3.87,25,.94,36.84,3.6C128.5,312.12,146.41,324.46,164.9,334Z" transform="translate(-47.31 -2.48)" fill="#578dfa" opacity="0.18" style="isolation:isolate"/><path d="M78.6,277.41s26.81-7.78,23.92-33.14,3.56-72,18.64-71,90.59,0,90.59,0V231H162.18s3.46,19.3-5.48,32.85-13.54,11.53-13.54,11.53Z" transform="translate(-47.31 -2.48)" fill="#578dfa"/><path d="M78.6,277.41s26.81-7.78,23.92-33.14,3.56-72,18.64-71,90.59,0,90.59,0V231H162.18s3.46,19.3-5.48,32.85-13.54,11.53-13.54,11.53Z" transform="translate(-47.31 -2.48)" fill="url(#linear-gradient)"/><path d="M192.15,152.63H312s13.25,3.17,14.69,20.75V330.44l-89.05,1.44a21,21,0,0,1-2.56.05,27.36,27.36,0,0,1-26.25-27.43V168.77S207.14,154.65,192.15,152.63Z" transform="translate(-47.31 -2.48)" fill="#578dfa"/><path d="M192.15,152.63H312s13.25,3.17,14.69,20.75V330.44l-89.05,1.44a20.78,20.78,0,0,1-3.12,0,27.31,27.31,0,0,1-25.69-27.37V168.77S207.14,154.65,192.15,152.63Z" transform="translate(-47.31 -2.48)" fill="url(#linear-gradient-2)"/><path d="M243.16,293.36S229.44,292,229.3,310.61s12.32,15,12.32,15l2.64-.15s16.58-11.44,7.63-24.06C251.89,301.37,248.22,294,243.16,293.36Z" transform="translate(-47.31 -2.48)" fill="url(#linear-gradient-3)"/><path d="M244.63,296s-12.34-1.25-12.47,15.52S243.25,325,243.25,325l2.37-.13s14.92-10.3,6.87-21.66C252.49,303.16,249.18,296.54,244.63,296Z" transform="translate(-47.31 -2.48)" fill="url(#linear-gradient-4)"/><path d="M243.16,293.36H360s8.55,3.07,7.69,17.2-15.85,21.32-15.85,21.32H237.68s11.53-6.77,11.68-20S243.16,293.36,243.16,293.36Z" transform="translate(-47.31 -2.48)" fill="#578dfa"/><path d="M243.16,293.36H360s8.55,3.07,7.69,17.2-15.85,21.32-15.85,21.32H237.68s11.53-6.77,11.68-20S243.16,293.36,243.16,293.36Z" transform="translate(-47.31 -2.48)" fill="url(#linear-gradient-5)"/><path d="M121.16,173.28s8.26.77,7.49,13.64-1.92,44.77,13.45,44.77,25.75-2.5,26.32-11.34,1-47.64,1-47.64Z" transform="translate(-47.31 -2.48)" fill="#578dfa"/><path d="M192.15,152.63s-21-.67-22.77,20.08-1,47.64-1,47.64-3.07,11-19.21,11.53H209l-.09-63.11S206.75,154.26,192.15,152.63Z" transform="translate(-47.31 -2.48)" fill="#578dfa"/><path d="M192.15,152.63s-21-.67-22.77,20.08-1,47.64-1,47.64-3.07,11-19.21,11.53H209l-.09-63.11S206.75,154.26,192.15,152.63Z" transform="translate(-47.31 -2.48)" fill="url(#linear-gradient-6)"/><path d="M246.37,44.33c-4.09,1-6.75,5.16-7.53,9.3s-.09,8.39.27,12.59c.38,4.51.36,9,.39,13.57,0,2,.05,4.15,1.06,5.91,1.28,2.22,3.83,3.38,6.32,4,4.11,1,8.39.82,12.61.64,1.65-.07,3.43-.19,4.67-1.27a6.24,6.24,0,0,0,1.73-3.26A44.32,44.32,0,0,0,267,76.16l.72-15.83c.26-5.64.06-13.13-6-15.9-1.73-.79-3.63-.53-5.47-.46C253.08,44.09,249.53,43.52,246.37,44.33Z" transform="translate(-47.31 -2.48)" fill="#578dfa"/><path d="M245.87,81.92c-1.25,1,0,4.44,2,5,1.22.33-6,.47-6.76-.55a8.71,8.71,0,0,1-1.54-4.08c-.18-4.47.31-9,.13-13.52a17.61,17.61,0,0,1,.43-5.89c.89-2.93,3.21-5.19,4.46-8,1.37,1.63,1.19,4,1.06,6.14A50.2,50.2,0,0,0,246,70.6a8.86,8.86,0,0,0,.71,2.82c1.25,2.57,5,3.21,5.76,6C253.43,83,247.93,82.55,245.87,81.92Z" transform="translate(-47.31 -2.48)" fill="url(#linear-gradient-7)"/><path d="M252.44,45.79l.76,1.91c.32.8.77,1.7,1.61,1.88a2.47,2.47,0,0,0,1.28-.2,4,4,0,0,0,2.3-1.83,4.35,4.35,0,0,0,.28-2c-.08-2.42-.33-11.39-3.88-10.94C251.94,35,251.63,43.77,252.44,45.79Z" transform="translate(-47.31 -2.48)" fill="url(#linear-gradient-8)"/><path d="M255.56,45.83c.59.64,1.5,1.21,2.28.83s.92-1.24,1-2,.13-1.52.14-2.28a1.64,1.64,0,0,0-1.09-1.75c-.87-.55-4.46-2.87-4.53-.46A8.61,8.61,0,0,0,255.56,45.83Z" transform="translate(-47.31 -2.48)" fill="url(#linear-gradient-9)"/><path d="M265.9,29a61,61,0,0,1-2,8.21,13.48,13.48,0,0,1-1.45,3.35,5.27,5.27,0,0,1-2.8,2.23,5.36,5.36,0,0,1-4.49-1,7.92,7.92,0,0,1-2.68-3.3,10.9,10.9,0,0,1-.77-3.28,15.41,15.41,0,0,1,1.5-8.62A7.17,7.17,0,0,1,255,24.28a6.57,6.57,0,0,1,5.2-1.15,16,16,0,0,1,5.08,2C266.68,25.93,266.13,27.69,265.9,29Z" transform="translate(-47.31 -2.48)" fill="url(#linear-gradient-10)"/><path d="M265.64,21.57A8,8,0,0,1,267,23l2.1,2.6a2.43,2.43,0,0,1,.64,1.2,1.9,1.9,0,0,1-.31,1.13,4.22,4.22,0,0,1-3.29,2,8.43,8.43,0,0,1-4.3-1.32,1.69,1.69,0,0,1-1.78.67c-.67-.11-1.29-.42-2-.51A3.3,3.3,0,0,0,255,30.18c-.19.28-.52.64-.78.42a.5.5,0,0,1-.16-.35c-.11-.56-.4-1.25-1-1.22a.83.83,0,0,0-.71.74,2.68,2.68,0,0,0,.16,1.08l.49,1.59a.41.41,0,0,1,0,.19c0,.17-.29.16-.47.18-.4,0-.65.45-.77.83a2.74,2.74,0,0,1-.48,1.1.32.32,0,0,1-.16.09.33.33,0,0,1-.18-.08,3.11,3.11,0,0,1-.86-2.29c-.1-1.22-.17-2.45-.22-3.68a6.92,6.92,0,0,1,.29-2.87,8.58,8.58,0,0,1,1.25-2A9,9,0,0,1,253,22.09a6.85,6.85,0,0,1,3.22-1.17,26.56,26.56,0,0,1,5.11-.41A7.31,7.31,0,0,1,265.64,21.57Z" transform="translate(-47.31 -2.48)" fill="#3e3e54"/><path d="M272.69,55.27c1.29,4,1.25,8.33,1.18,12.56a29,29,0,0,1-.34,4.66,8.38,8.38,0,0,1-1.47,3.61,4.68,4.68,0,0,1-3.3,1.91,2.78,2.78,0,0,1-1.55-.33c-1.21-.71-1.39-2.35-1.44-3.75l-.58-16.46c-.09-2.51-4.68-9.52-4.24-12,.48-2.69,6.51,2.06,7.95,3.48A15.56,15.56,0,0,1,272.69,55.27Z" transform="translate(-47.31 -2.48)" fill="#578dfa"/><path d="M272.15,60.56c0-.37,0-.83-.33-1a.65.65,0,0,0-.63.08,1.93,1.93,0,0,0-.61,1.5c-.11,1.19-.23,2.38-.34,3.57-.06.7-.47,1.94.6,1.76C272.39,66.21,272.07,61.72,272.15,60.56Z" transform="translate(-47.31 -2.48)" fill="#3e3e54"/><path d="M269.38,64.6a3.46,3.46,0,0,0-2.56,1.63.84.84,0,0,0-.08.2.42.42,0,0,0,.08.26,1.81,1.81,0,0,0,1.36.67,18.94,18.94,0,0,0,3.45.24,1.2,1.2,0,0,0,.68-.16,1.13,1.13,0,0,0,.35-.61c.22-.72.65-2.12-.29-2.32a10.62,10.62,0,0,0-1.45.12A13.15,13.15,0,0,0,269.38,64.6Z" transform="translate(-47.31 -2.48)" fill="url(#linear-gradient-11)"/><path d="M232.4,59c-1.7,2.2-3.49,4.75-3.06,7.49a8,8,0,0,0,2.43,4.19c3.81,3.91,9.1,5.9,14.22,7.78a1.13,1.13,0,0,0,.7.11,1.07,1.07,0,0,0,.51-.36c1.66-1.95.46-5-1.35-6.85s-4.2-3.14-5.37-5.42a1.14,1.14,0,0,1-.18-.69,1.36,1.36,0,0,1,.48-.69c2.85-2.59,5.46-5.74,6.19-9.52.47-2.46-.93-10.51-4.86-8.27-1.89,1.07-3.4,4.06-4.71,5.76Z" transform="translate(-47.31 -2.48)" fill="#578dfa"/><path d="M240.27,90.2l5.24,58.35-6.84,3.75,13-.66,1.54-49,5.3-.23,4.2,49.69,13.47.88-7.07-5.07.37-61-27.59-.07C240.27,86.86,240.12,88.56,240.27,90.2Z" transform="translate(-47.31 -2.48)" fill="#3e3e54"/><path d="M257.41,67.47a2.47,2.47,0,0,1,2.88-1.62q7.54,0,15.08.61a2.54,2.54,0,0,1,1.78.63,2.5,2.5,0,0,1,.05,2.41,137,137,0,0,1-7.69,17.42,2.08,2.08,0,0,1-.4.61,2.21,2.21,0,0,1-1.53.45,143.55,143.55,0,0,1-17.72-.44c-.34,0-.75-.1-.89-.42-.33-.75,1.3-3,1.62-3.84.66-1.74,1.28-3.5,2-5.23C254,74.46,255.63,70.92,257.41,67.47Z" transform="translate(-47.31 -2.48)" fill="#fff"/><path d="M250.78,73.24c.8-.17,1.85-.17,2.17.58.19.45.05,1.08.46,1.35a.92.92,0,0,0,.52.11c.64,0,1.27-.15,1.9-.12a1.89,1.89,0,0,1,1.63.81,2.15,2.15,0,0,1-.18,2,6.73,6.73,0,0,1-1.13,1.62,3.93,3.93,0,0,1-1.25.93,4,4,0,0,1-1.38.3,10.16,10.16,0,0,1-5.74-1.23,4.54,4.54,0,0,1-2.27-2.34C244.41,74.1,248.79,73.64,250.78,73.24Z" transform="translate(-47.31 -2.48)" fill="url(#linear-gradient-12)"/><rect x="186.05" y="168.88" width="80.69" height="5.76" rx="2.88" fill="url(#linear-gradient-13)"/><rect x="186.05" y="181.56" width="80.69" height="5.76" rx="2.88" fill="url(#linear-gradient-14)"/><rect x="186.05" y="194.24" width="80.69" height="5.76" rx="2.88" fill="url(#linear-gradient-15)"/><rect x="186.05" y="206.92" width="80.69" height="5.76" rx="2.88" fill="url(#linear-gradient-16)"/><rect x="186.05" y="219.6" width="80.69" height="5.76" rx="2.88" fill="url(#linear-gradient-17)"/><rect x="186.05" y="232.28" width="80.69" height="5.76" rx="2.88" fill="url(#linear-gradient-18)"/><rect x="186.05" y="244.96" width="80.69" height="5.76" rx="2.88" fill="url(#linear-gradient-19)"/><rect x="193.93" y="257.83" width="8.84" height="26.13" fill="url(#linear-gradient-20)"/><rect x="206.23" y="265.81" width="8.84" height="18.15" fill="url(#linear-gradient-21)"/><rect x="230.24" y="258.97" width="8.84" height="24.99" fill="url(#linear-gradient-22)"/><rect x="218.33" y="272.43" width="8.84" height="11.53" fill="url(#linear-gradient-23)"/><rect x="248.3" y="264.11" width="10.37" height="20.04" fill="url(#linear-gradient-24)"/><rect x="258.68" y="264.16" width="10.37" height="20" fill="url(#linear-gradient-25)"/><rect x="248.3" y="258.6" width="20.75" height="5.38" fill="url(#linear-gradient-26)"/><path d="M209.71,310.68c.63,3.63,5.43,16.37,17.46,19.52,5.54,1.45,12,2.86,17.3.69a12.21,12.21,0,0,0,4.24-2.71,8.68,8.68,0,0,0,.15-11.37,16.39,16.39,0,0,0-4-2.93c-4.26-2.49-9.46-6.57-14.59-6.69S214.57,309,209.71,310.68Z" transform="translate(-47.31 -2.48)" fill="url(#linear-gradient-27)"/></svg>