<svg width="2641.66" xmlns="http://www.w3.org/2000/svg" height="199" id="screenshot-aebc70d5-a125-801a-8006-0d61928086d7" viewBox="0 0 2641.66 199" xmlns:xlink="http://www.w3.org/1999/xlink" fill="none" version="1.1"><g id="shape-aebc70d5-a125-801a-8006-0d61928086d7" width="2636.288" height="199" rx="0" ry="0" style="fill: rgb(0, 0, 0);"><g id="shape-aebc70d5-a125-801a-8006-0d6192844a46" style="display: none;"><g class="fills" id="fills-aebc70d5-a125-801a-8006-0d6192844a46"><rect width="2636.288" height="199" x="0" transform="matrix(1.000000, 0.000000, 0.000000, 1.000000, 0.000000, 0.000000)" style="fill: none;" ry="0" fill="none" rx="0" y="0"/></g></g><g id="shape-aebc70d5-a125-801a-8006-0d6192898d9f" rx="0" ry="0" style="opacity: 1; fill: rgb(255, 255, 255); fill-opacity: 1;"><g id="shape-aebc70d5-a125-801a-8006-0d61928778aa"><g class="fills" id="fills-aebc70d5-a125-801a-8006-0d61928778aa"><path d="M47.36000061035156,53.03497314453125L89.33999633789062,144.04501342773438L5.380002975463867,144.04501342773438L47.36000061035156,53.03497314453125ZM47.36000061035156,64.30499267578125L12.80000114440918,139.30499267578125L81.91999816894531,139.30499267578125L47.36000061035156,64.30499267578125ZM117.25,117.03500366210938L117.25,144.04501342773438L112.50999450683594,144.04501342773438L112.50999450683594,54.95501708984375L148.35000610351562,54.95501708984375C154.32333374023438,54.95501708984375,159.84999084472656,56.2349853515625,164.9300079345703,58.79498291015625C170.0033416748047,61.35498046875,174.03334045410156,64.981689453125,177.02000427246094,69.67498779296875C180.0066680908203,74.36834716796875,181.50001525878906,79.788330078125,181.50001525878906,85.93499755859375L181.50001525878906,85.93499755859375C181.50001525878906,91.8216552734375,179.98667907714844,97.23834228515625,176.9600067138672,102.18499755859375C173.93333435058594,107.13833618164062,169.81666564941406,110.93832397460938,164.61000061035156,113.58499145507812L164.61000061035156,113.58499145507812C160.0833282470703,115.885009765625,154.663330078125,117.03500366210938,148.35000610351562,117.03500366210938L148.35000610351562,117.03500366210938L117.25,117.03500366210938ZM117.25,59.69500732421875L117.25,112.30499267578125L148.35000610351562,112.30499267578125C153.80999755859375,112.30499267578125,158.29000854492188,111.45166015625,161.7899932861328,109.7449951171875L161.7899932861328,109.7449951171875C166.31666564941406,107.61166381835938,169.94334411621094,104.41165161132812,172.6699981689453,100.14498901367188C175.40333557128906,95.87832641601562,176.77000427246094,91.14166259765625,176.77000427246094,85.93499755859375L176.77000427246094,85.93499755859375C176.77000427246094,80.81500244140625,175.40333557128906,76.12164306640625,172.6699981689453,71.85498046875C169.94334411621094,67.58831787109375,166.27333068847656,64.3883056640625,161.6599884033203,62.2550048828125L161.6599884033203,62.2550048828125C158.1666717529297,60.54833984375,153.72999572753906,59.69500732421875,148.35000610351562,59.69500732421875L148.35000610351562,59.69500732421875L117.25,59.69500732421875ZM211.9700164794922,117.03500366210938L211.9700164794922,144.04501342773438L207.22999572753906,144.04501342773438L207.22999572753906,54.95501708984375L243.0699920654297,54.95501708984375C249.04335021972656,54.95501708984375,254.5699920654297,56.2349853515625,259.6499938964844,58.79498291015625C264.72332763671875,61.35498046875,268.7533264160156,64.981689453125,271.739990234375,69.67498779296875C274.7266540527344,74.36834716796875,276.2200012207031,79.788330078125,276.2200012207031,85.93499755859375L276.2200012207031,85.93499755859375C276.2200012207031,91.8216552734375,274.7066650390625,97.23834228515625,271.67999267578125,102.18499755859375C268.6533203125,107.13833618164062,264.5366516113281,110.93832397460938,259.3299865722656,113.58499145507812L259.3299865722656,113.58499145507812C254.80332946777344,115.885009765625,249.3833465576172,117.03500366210938,243.0699920654297,117.03500366210938L243.0699920654297,117.03500366210938L211.9700164794922,117.03500366210938ZM211.9700164794922,59.69500732421875L211.9700164794922,112.30499267578125L243.0699920654297,112.30499267578125C248.53001403808594,112.30499267578125,253.00999450683594,111.45166015625,256.5099792480469,109.7449951171875L256.5099792480469,109.7449951171875C261.0366516113281,107.61166381835938,264.663330078125,104.41165161132812,267.3899841308594,100.14498901367188C270.1233215332031,95.87832641601562,271.489990234375,91.14166259765625,271.489990234375,85.93499755859375L271.489990234375,85.93499755859375C271.489990234375,80.81500244140625,270.1233215332031,76.12164306640625,267.3899841308594,71.85498046875C264.663330078125,67.58831787109375,260.9933166503906,64.3883056640625,256.3799743652344,62.2550048828125L256.3799743652344,62.2550048828125C252.8866729736328,60.54833984375,248.4499969482422,59.69500732421875,243.0699920654297,59.69500732421875L243.0699920654297,59.69500732421875L211.9700164794922,59.69500732421875ZM419.9700012207031,144.04501342773438L396.66998291015625,144.04501342773438L396.66998291015625,54.95501708984375L433.9200134277344,54.95501708984375C440.1466369628906,54.95501708984375,445.5233459472656,56.10833740234375,450.0499572753906,58.41497802734375L450.0499572753906,58.41497802734375C455.2566833496094,61.0616455078125,459.3933410644531,64.83831787109375,462.4599914550781,69.7449951171875C465.5332946777344,74.65167236328125,467.0699768066406,80.04833984375,467.0699768066406,85.93499755859375L467.0699768066406,85.93499755859375C467.0699768066406,91.8216552734375,465.5566711425781,97.23834228515625,462.5299987792969,102.18499755859375C459.4966735839844,107.13833618164062,455.3799743652344,110.93832397460938,450.1799621582031,113.58499145507812L450.1799621582031,113.58499145507812C445.7399597167969,115.885009765625,440.3199768066406,117.03500366210938,433.9200134277344,117.03500366210938L433.9200134277344,117.03500366210938L419.9700012207031,117.03500366210938L419.9700012207031,144.04501342773438ZM540.2900390625,57.905029296875C545.4100341796875,60.29168701171875,549.4400024414062,63.8316650390625,552.3800048828125,68.5250244140625C555.32666015625,73.21832275390625,556.7999877929688,78.42498779296875,556.7999877929688,84.14498901367188L556.7999877929688,84.14498901367188C556.7999877929688,90.79833984375,554.7733764648438,96.74832153320312,550.7200317382812,101.9949951171875C546.6666870117188,107.24166870117188,541.4833374023438,110.71832275390625,535.1700439453125,112.42498779296875L535.1700439453125,112.42498779296875L557.8200073242188,144.04501342773438L552.1900024414062,144.04501342773438L530.2999877929688,113.32501220703125L526.2100219726562,113.45498657226562L494.0799865722656,113.45498657226562L494.0799865722656,144.04501342773438L489.3399963378906,144.04501342773438L489.3399963378906,54.95501708984375L523.260009765625,54.95501708984375C527.02001953125,54.95501708984375,530.2433471679688,55.191650390625,532.9299926757812,55.66497802734375C535.61669921875,56.13165283203125,538.0700073242188,56.87835693359375,540.2900390625,57.905029296875L540.2900390625,57.905029296875ZM494.0799865722656,108.71499633789062L527.489990234375,108.71499633789062C531.92333984375,108.71499633789062,536.02001953125,107.60501098632812,539.780029296875,105.385009765625C543.5333251953125,103.17166137695312,546.52001953125,100.18499755859375,548.739990234375,96.42498779296875C550.953369140625,92.67166137695312,552.0599975585938,88.57833862304688,552.0599975585938,84.14498901367188L552.0599975585938,84.14498901367188C552.0599975585938,79.191650390625,550.760009765625,74.711669921875,548.1600341796875,70.70501708984375C545.5599975585938,66.691650390625,541.953369140625,63.70501708984375,537.3400268554688,61.7449951171875L537.3400268554688,61.7449951171875C534.0133666992188,60.37835693359375,529.3200073242188,59.69500732421875,523.260009765625,59.69500732421875L523.260009765625,59.69500732421875L494.0799865722656,59.69500732421875L494.0799865722656,108.71499633789062ZM586.8800048828125,54.95501708984375L644.6100463867188,54.95501708984375L644.6100463867188,59.69500732421875L617.9800415039062,59.69500732421875L617.9800415039062,139.30499267578125L644.6100463867188,139.30499267578125L644.6100463867188,144.04501342773438L586.8800048828125,144.04501342773438L586.8800048828125,139.30499267578125L613.3800048828125,139.30499267578125L613.3800048828125,59.69500732421875L586.8800048828125,59.69500732421875L586.8800048828125,54.95501708984375ZM671.1000366210938,54.95501708984375L676.2200317382812,54.95501708984375L710.27001953125,137.77499389648438L744.3200073242188,54.95501708984375L749.3099975585938,54.95501708984375L712.7000122070312,144.04501342773438L707.7100219726562,144.04501342773438L671.1000366210938,54.95501708984375ZM766.0800170898438,144.04501342773438L802.6900024414062,54.95501708984375L807.6799926757812,54.95501708984375L844.2900390625,144.04501342773438L839.1700439453125,144.04501342773438L827.1400146484375,114.60501098632812L783.2300415039062,114.60501098632812L771.0700073242188,144.04501342773438L766.0800170898438,144.04501342773438ZM805.1199951171875,61.10498046875L785.1500244140625,109.9949951171875L825.2200317382812,109.9949951171875L805.1199951171875,61.10498046875ZM869.25,109.9949951171875C869.25,115.62832641601562,870.6799926757812,120.83499145507812,873.5400390625,125.614990234375C876.3933715820312,130.39498901367188,880.2333374023438,134.19168090820312,885.0599975585938,137.0050048828125C889.8800048828125,139.81832885742188,895.106689453125,141.22500610351562,900.739990234375,141.22500610351562L900.739990234375,141.22500610351562C906.5400390625,141.22500610351562,911.7866821289062,140.07501220703125,916.4800415039062,137.77499389648438C921.17333984375,135.46832275390625,924.8633422851562,132.26834106445312,927.5499877929688,128.17498779296875C930.2366333007812,124.07501220703125,931.6233520507812,119.46499633789062,931.7100219726562,114.34500122070312L931.7100219726562,114.34500122070312L936.3200073242188,114.34500122070312C936.3200073242188,120.23834228515625,934.7633666992188,125.59500122070312,931.6499633789062,130.41500854492188C928.5366821289062,135.2349853515625,924.27001953125,139.03167724609375,918.8500366210938,141.80499267578125C913.4299926757812,144.57833862304688,907.3933715820312,145.96499633789062,900.739990234375,145.96499633789062L900.739990234375,145.96499633789062C894.2533569335938,145.96499633789062,888.2366943359375,144.34500122070312,882.6900024414062,141.10501098632812C877.1433715820312,137.85833740234375,872.7467041015625,133.4849853515625,869.5,127.9849853515625C866.260009765625,122.47833251953125,864.6400146484375,116.48165893554688,864.6400146484375,109.9949951171875L864.6400146484375,109.9949951171875L864.6400146484375,89.0050048828125C864.6400146484375,82.518310546875,866.239990234375,76.5250244140625,869.4400024414062,71.0250244140625C872.6400146484375,65.518310546875,876.9933471679688,61.14501953125,882.5,57.905029296875C888,54.6583251953125,893.9933471679688,53.03497314453125,900.4800415039062,53.03497314453125L900.4800415039062,53.03497314453125C907.0533447265625,53.03497314453125,913.0466918945312,54.42169189453125,918.4600219726562,57.19500732421875C923.8800048828125,59.96832275390625,928.1699829101562,63.7650146484375,931.3300170898438,68.58502197265625C934.4833374023438,73.41168212890625,936.0599975585938,78.768310546875,936.0599975585938,84.65499877929688L936.0599975585938,84.65499877929688L931.4600219726562,84.65499877929688C931.3733520507812,79.53497314453125,929.9633178710938,74.92498779296875,927.2300415039062,70.82501220703125C924.5033569335938,66.731689453125,920.8133544921875,63.53167724609375,916.1600341796875,61.2249755859375C911.5067138671875,58.92498779296875,906.280029296875,57.7750244140625,900.4800415039062,57.7750244140625L900.4800415039062,57.7750244140625C894.8466796875,57.7750244140625,889.6400146484375,59.181640625,884.8600463867188,61.9949951171875C880.086669921875,64.81500244140625,876.2900390625,68.6116943359375,873.4700317382812,73.385009765625C870.6566772460938,78.16497802734375,869.25,83.37164306640625,869.25,89.0050048828125L869.25,89.0050048828125L869.25,109.9949951171875ZM957.4400024414062,54.95501708984375L963.0700073242188,54.95501708984375L994.6900024414062,102.57501220703125L1026.0499267578125,54.95501708984375L1031.679931640625,54.95501708984375L996.9900512695312,107.56500244140625L996.9900512695312,144.04501342773438L992.2600708007812,144.04501342773438L992.2600708007812,107.56500244140625L957.4400024414062,54.95501708984375ZM1177.72998046875,144.04501342773438L1154.429931640625,144.04501342773438L1154.429931640625,54.95501708984375L1191.679931640625,54.95501708984375C1197.9066162109375,54.95501708984375,1203.2833251953125,56.10833740234375,1207.8099365234375,58.41497802734375L1207.8099365234375,58.41497802734375C1213.0166015625,61.0616455078125,1217.1533203125,64.83831787109375,1220.219970703125,69.7449951171875C1223.2933349609375,74.65167236328125,1224.8299560546875,80.04833984375,1224.8299560546875,85.93499755859375L1224.8299560546875,85.93499755859375C1224.8299560546875,91.8216552734375,1223.316650390625,97.23834228515625,1220.2899169921875,102.18499755859375C1217.256591796875,107.13833618164062,1213.1400146484375,110.93832397460938,1207.93994140625,113.58499145507812L1207.93994140625,113.58499145507812C1203.5,115.885009765625,1198.0799560546875,117.03500366210938,1191.679931640625,117.03500366210938L1191.679931640625,117.03500366210938L1177.72998046875,117.03500366210938L1177.72998046875,144.04501342773438ZM1278.719970703125,53.03497314453125C1285.373291015625,53.03497314453125,1291.5166015625,54.6783447265625,1297.14990234375,57.96502685546875C1302.7833251953125,61.25164794921875,1307.2432861328125,65.711669921875,1310.5299072265625,71.344970703125C1313.816650390625,76.9716796875,1315.4599609375,83.114990234375,1315.4599609375,89.77499389648438L1315.4599609375,89.77499389648438L1315.4599609375,109.22500610351562C1315.4599609375,115.885009765625,1313.816650390625,122.03167724609375,1310.5299072265625,127.66500854492188C1307.2432861328125,133.29165649414062,1302.7833251953125,137.74832153320312,1297.14990234375,141.03500366210938C1291.5166015625,144.3216552734375,1285.373291015625,145.96499633789062,1278.719970703125,145.96499633789062L1278.719970703125,145.96499633789062C1272.066650390625,145.96499633789062,1265.92333984375,144.3216552734375,1260.2899169921875,141.03500366210938C1254.6566162109375,137.74832153320312,1250.1966552734375,133.29165649414062,1246.909912109375,127.66500854492188C1243.623291015625,122.03167724609375,1241.97998046875,115.885009765625,1241.97998046875,109.22500610351562L1241.97998046875,109.22500610351562L1241.97998046875,89.77499389648438C1241.97998046875,83.114990234375,1243.623291015625,76.9716796875,1246.909912109375,71.344970703125C1250.1966552734375,65.711669921875,1254.6566162109375,61.25164794921875,1260.2899169921875,57.96502685546875C1265.92333984375,54.6783447265625,1272.066650390625,53.03497314453125,1278.719970703125,53.03497314453125L1278.719970703125,53.03497314453125ZM1246.719970703125,109.22500610351562C1246.719970703125,115.03167724609375,1248.14990234375,120.38833618164062,1251.010009765625,125.29501342773438C1253.8699951171875,130.20166015625,1257.7532958984375,134.08499145507812,1262.659912109375,136.94500732421875C1267.566650390625,139.79833984375,1272.919921875,141.22500610351562,1278.719970703125,141.22500610351562L1278.719970703125,141.22500610351562C1284.5198974609375,141.22500610351562,1289.873291015625,139.79833984375,1294.7799072265625,136.94500732421875C1299.6866455078125,134.08499145507812,1303.5699462890625,130.20166015625,1306.429931640625,125.29501342773438C1309.2899169921875,120.38833618164062,1310.719970703125,115.03167724609375,1310.719970703125,109.22500610351562L1310.719970703125,109.22500610351562L1310.719970703125,89.77499389648438C1310.719970703125,83.96832275390625,1309.2899169921875,78.6116943359375,1306.429931640625,73.70501708984375C1303.5699462890625,68.79833984375,1299.6866455078125,64.9183349609375,1294.7799072265625,62.06500244140625C1289.873291015625,59.20501708984375,1284.5198974609375,57.7750244140625,1278.719970703125,57.7750244140625L1278.719970703125,57.7750244140625C1272.919921875,57.7750244140625,1267.566650390625,59.20501708984375,1262.659912109375,62.06500244140625C1257.7532958984375,64.9183349609375,1253.8699951171875,68.79833984375,1251.010009765625,73.70501708984375C1248.14990234375,78.6116943359375,1246.719970703125,83.96832275390625,1246.719970703125,89.77499389648438L1246.719970703125,89.77499389648438L1246.719970703125,109.22500610351562ZM1412.739990234375,144.04501342773438L1345.919921875,144.04501342773438L1345.919921875,54.95501708984375L1350.659912109375,54.95501708984375L1350.659912109375,139.30499267578125L1412.739990234375,139.30499267578125L1412.739990234375,144.04501342773438ZM1439.3599853515625,54.95501708984375L1497.0899658203125,54.95501708984375L1497.0899658203125,59.69500732421875L1470.4599609375,59.69500732421875L1470.4599609375,139.30499267578125L1497.0899658203125,139.30499267578125L1497.0899658203125,144.04501342773438L1439.3599853515625,144.04501342773438L1439.3599853515625,139.30499267578125L1465.8599853515625,139.30499267578125L1465.8599853515625,59.69500732421875L1439.3599853515625,59.69500732421875L1439.3599853515625,54.95501708984375ZM1532.2899169921875,109.9949951171875C1532.2899169921875,115.62832641601562,1533.719970703125,120.83499145507812,1536.5799560546875,125.614990234375C1539.433349609375,130.39498901367188,1543.2733154296875,134.19168090820312,1548.0999755859375,137.0050048828125C1552.919921875,139.81832885742188,1558.1466064453125,141.22500610351562,1563.7799072265625,141.22500610351562L1563.7799072265625,141.22500610351562C1569.5799560546875,141.22500610351562,1574.82666015625,140.07501220703125,1579.5198974609375,137.77499389648438C1584.2132568359375,135.46832275390625,1587.9033203125,132.26834106445312,1590.5899658203125,128.17498779296875C1593.276611328125,124.07501220703125,1594.663330078125,119.46499633789062,1594.75,114.34500122070312L1594.75,114.34500122070312L1599.3599853515625,114.34500122070312C1599.3599853515625,120.23834228515625,1597.8033447265625,125.59500122070312,1594.68994140625,130.41500854492188C1591.57666015625,135.2349853515625,1587.3099365234375,139.03167724609375,1581.8900146484375,141.80499267578125C1576.469970703125,144.57833862304688,1570.433349609375,145.96499633789062,1563.7799072265625,145.96499633789062L1563.7799072265625,145.96499633789062C1557.2933349609375,145.96499633789062,1551.276611328125,144.34500122070312,1545.72998046875,141.10501098632812C1540.183349609375,137.85833740234375,1535.78662109375,133.4849853515625,1532.5399169921875,127.9849853515625C1529.2999267578125,122.47833251953125,1527.679931640625,116.48165893554688,1527.679931640625,109.9949951171875L1527.679931640625,109.9949951171875L1527.679931640625,89.0050048828125C1527.679931640625,82.518310546875,1529.2799072265625,76.5250244140625,1532.47998046875,71.0250244140625C1535.679931640625,65.518310546875,1540.0333251953125,61.14501953125,1545.5399169921875,57.905029296875C1551.0399169921875,54.6583251953125,1557.0333251953125,53.03497314453125,1563.5198974609375,53.03497314453125L1563.5198974609375,53.03497314453125C1570.09326171875,53.03497314453125,1576.086669921875,54.42169189453125,1581.5,57.19500732421875C1586.919921875,59.96832275390625,1591.2099609375,63.7650146484375,1594.3699951171875,68.58502197265625C1597.5233154296875,73.41168212890625,1599.0999755859375,78.768310546875,1599.0999755859375,84.65499877929688L1599.0999755859375,84.65499877929688L1594.5,84.65499877929688C1594.413330078125,79.53497314453125,1593.0032958984375,74.92498779296875,1590.2698974609375,70.82501220703125C1587.5433349609375,66.731689453125,1583.853271484375,63.53167724609375,1579.199951171875,61.2249755859375C1574.546630859375,58.92498779296875,1569.3199462890625,57.7750244140625,1563.5198974609375,57.7750244140625L1563.5198974609375,57.7750244140625C1557.8865966796875,57.7750244140625,1552.679931640625,59.181640625,1547.89990234375,61.9949951171875C1543.1265869140625,64.81500244140625,1539.3299560546875,68.6116943359375,1536.510009765625,73.385009765625C1533.6966552734375,78.16497802734375,1532.2899169921875,83.37164306640625,1532.2899169921875,89.0050048828125L1532.2899169921875,89.0050048828125L1532.2899169921875,109.9949951171875ZM1620.47998046875,54.95501708984375L1626.1099853515625,54.95501708984375L1657.72998046875,102.57501220703125L1689.0899658203125,54.95501708984375L1694.719970703125,54.95501708984375L1660.0299072265625,107.56500244140625L1660.0299072265625,144.04501342773438L1655.2999267578125,144.04501342773438L1655.2999267578125,107.56500244140625L1620.47998046875,54.95501708984375ZM1846.39990234375,57.7750244140625C1840.679931640625,57.7750244140625,1835.3665771484375,59.20501708984375,1830.4599609375,62.06500244140625C1825.5533447265625,64.9183349609375,1821.64990234375,68.79833984375,1818.75,73.70501708984375C1815.8499755859375,78.6116943359375,1814.39990234375,83.96832275390625,1814.39990234375,89.77499389648438L1814.39990234375,89.77499389648438L1814.39990234375,106.66500854492188C1814.39990234375,112.72500610351562,1815.2532958984375,117.71832275390625,1816.9599609375,121.64498901367188L1816.9599609375,121.64498901367188C1819.3466796875,127.19168090820312,1822.9732666015625,131.71499633789062,1827.8399658203125,135.21499633789062C1832.7066650390625,138.71499633789062,1838.1666259765625,140.6783447265625,1844.219970703125,141.10501098632812L1844.219970703125,141.10501098632812L1844.219970703125,99.5050048828125L1883.260009765625,99.5050048828125L1883.260009765625,107.94500732421875C1883.260009765625,113.41165161132812,1882.449951171875,118.2783203125,1880.8299560546875,122.54501342773438L1880.8299560546875,122.54501342773438C1878.183349609375,129.625,1873.74658203125,135.29833984375,1867.5198974609375,139.56500244140625C1861.2933349609375,143.8316650390625,1854.2532958984375,145.96499633789062,1846.39990234375,145.96499633789062L1846.39990234375,145.96499633789062C1838.9732666015625,145.96499633789062,1832.2099609375,143.93832397460938,1826.1099853515625,139.885009765625C1820.010009765625,135.8316650390625,1815.5533447265625,130.43499755859375,1812.739990234375,123.69500732421875L1812.739990234375,123.69500732421875C1810.6866455078125,118.91500854492188,1809.659912109375,113.23834228515625,1809.659912109375,106.66500854492188L1809.659912109375,106.66500854492188L1809.659912109375,89.77499389648438C1809.659912109375,83.114990234375,1811.3033447265625,76.9716796875,1814.5899658203125,71.344970703125C1817.8765869140625,65.711669921875,1822.336669921875,61.25164794921875,1827.969970703125,57.96502685546875C1833.603271484375,54.6783447265625,1839.74658203125,53.03497314453125,1846.39990234375,53.03497314453125L1846.39990234375,53.03497314453125C1851.9466552734375,53.03497314453125,1857.0233154296875,53.95166015625,1861.6300048828125,55.78497314453125C1866.236572265625,57.625,1870.163330078125,60.29168701171875,1873.409912109375,63.78497314453125L1873.409912109375,63.78497314453125C1876.056640625,66.691650390625,1878.2099609375,69.93499755859375,1879.8699951171875,73.5150146484375C1881.53662109375,77.1016845703125,1882.3699951171875,80.72833251953125,1882.3699951171875,84.39498901367188L1882.3699951171875,84.39498901367188L1877.760009765625,84.39498901367188C1877.67333984375,81.24163818359375,1876.88330078125,78.12835693359375,1875.3900146484375,75.05499267578125C1873.8966064453125,71.981689453125,1872,69.20831298828125,1869.699951171875,66.7349853515625L1869.699951171875,66.7349853515625C1863.97998046875,60.76165771484375,1856.2132568359375,57.7750244140625,1846.39990234375,57.7750244140625L1846.39990234375,57.7750244140625ZM1878.5299072265625,107.94500732421875L1878.5299072265625,104.10501098632812L1848.8299560546875,104.10501098632812L1848.8299560546875,141.10501098632812C1854.9765625,140.6783447265625,1860.5032958984375,138.7349853515625,1865.409912109375,135.27499389648438C1870.316650390625,131.8216552734375,1873.919921875,127.2349853515625,1876.219970703125,121.5150146484375L1876.219970703125,121.5150146484375C1877.760009765625,117.50833129882812,1878.5299072265625,112.9849853515625,1878.5299072265625,107.94500732421875L1878.5299072265625,107.94500732421875ZM1911.0399169921875,144.04501342773438L1911.0399169921875,54.95501708984375L1973.7598876953125,54.95501708984375L1973.7598876953125,59.69500732421875L1915.7799072265625,59.69500732421875L1915.7799072265625,95.78500366210938L1966.2098388671875,95.78500366210938L1966.2098388671875,100.52499389648438L1915.7799072265625,100.52499389648438L1915.7799072265625,139.30499267578125L1973.7598876953125,139.30499267578125L1973.7598876953125,144.04501342773438L1911.0399169921875,144.04501342773438ZM2006.4000244140625,144.04501342773438L2001.6600341796875,144.04501342773438L2001.6600341796875,54.95501708984375L2006.6600341796875,54.95501708984375L2068.860107421875,115.375L2068.860107421875,54.95501708984375L2073.60009765625,54.95501708984375L2073.60009765625,144.04501342773438L2068.860107421875,144.04501342773438L2068.860107421875,122.02499389648438L2006.4000244140625,61.10498046875L2006.4000244140625,144.04501342773438ZM2100.47998046875,144.04501342773438L2100.47998046875,54.95501708984375L2163.2001953125,54.95501708984375L2163.2001953125,59.69500732421875L2105.219970703125,59.69500732421875L2105.219970703125,95.78500366210938L2155.650146484375,95.78500366210938L2155.650146484375,100.52499389648438L2105.219970703125,100.52499389648438L2105.219970703125,139.30499267578125L2163.2001953125,139.30499267578125L2163.2001953125,144.04501342773438L2100.47998046875,144.04501342773438ZM2245.25,57.905029296875C2250.3701171875,60.29168701171875,2254.400146484375,63.8316650390625,2257.340087890625,68.5250244140625C2260.286865234375,73.21832275390625,2261.760009765625,78.42498779296875,2261.760009765625,84.14498901367188L2261.760009765625,84.14498901367188C2261.760009765625,90.79833984375,2259.7333984375,96.74832153320312,2255.68017578125,101.9949951171875C2251.626708984375,107.24166870117188,2246.443359375,110.71832275390625,2240.130126953125,112.42498779296875L2240.130126953125,112.42498779296875L2262.780029296875,144.04501342773438L2257.150146484375,144.04501342773438L2235.260009765625,113.32501220703125L2231.170166015625,113.45498657226562L2199.0400390625,113.45498657226562L2199.0400390625,144.04501342773438L2194.300048828125,144.04501342773438L2194.300048828125,54.95501708984375L2228.219970703125,54.95501708984375C2231.97998046875,54.95501708984375,2235.203369140625,55.191650390625,2237.89013671875,55.66497802734375C2240.57666015625,56.13165283203125,2243.030029296875,56.87835693359375,2245.25,57.905029296875L2245.25,57.905029296875ZM2199.0400390625,108.71499633789062L2232.4501953125,108.71499633789062C2236.88330078125,108.71499633789062,2240.97998046875,107.60501098632812,2244.739990234375,105.385009765625C2248.493408203125,103.17166137695312,2251.47998046875,100.18499755859375,2253.7001953125,96.42498779296875C2255.913330078125,92.67166137695312,2257.02001953125,88.57833862304688,2257.02001953125,84.14498901367188L2257.02001953125,84.14498901367188C2257.02001953125,79.191650390625,2255.719970703125,74.711669921875,2253.1201171875,70.70501708984375C2250.52001953125,66.691650390625,2246.913330078125,63.70501708984375,2242.300048828125,61.7449951171875L2242.300048828125,61.7449951171875C2238.973388671875,60.37835693359375,2234.280029296875,59.69500732421875,2228.219970703125,59.69500732421875L2228.219970703125,59.69500732421875L2199.0400390625,59.69500732421875L2199.0400390625,108.71499633789062ZM2281.60009765625,144.04501342773438L2318.2099609375,54.95501708984375L2323.2001953125,54.95501708984375L2359.81005859375,144.04501342773438L2354.690185546875,144.04501342773438L2342.66015625,114.60501098632812L2298.75,114.60501098632812L2286.590087890625,144.04501342773438L2281.60009765625,144.04501342773438ZM2320.64013671875,61.10498046875L2300.670166015625,109.9949951171875L2340.739990234375,109.9949951171875L2320.64013671875,61.10498046875ZM2379.39013671875,54.95501708984375L2451.330078125,54.95501708984375L2451.330078125,59.69500732421875L2417.66015625,59.69500732421875L2417.66015625,144.04501342773438L2413.06005859375,144.04501342773438L2413.06005859375,59.69500732421875L2379.39013671875,59.69500732421875L2379.39013671875,54.95501708984375ZM2510.080078125,53.03497314453125C2516.7333984375,53.03497314453125,2522.876708984375,54.6783447265625,2528.510009765625,57.96502685546875C2534.143310546875,61.25164794921875,2538.603515625,65.711669921875,2541.89013671875,71.344970703125C2545.1767578125,76.9716796875,2546.820068359375,83.114990234375,2546.820068359375,89.77499389648438L2546.820068359375,89.77499389648438L2546.820068359375,109.22500610351562C2546.820068359375,115.885009765625,2545.1767578125,122.03167724609375,2541.89013671875,127.66500854492188C2538.603515625,133.29165649414062,2534.143310546875,137.74832153320312,2528.510009765625,141.03500366210938C2522.876708984375,144.3216552734375,2516.7333984375,145.96499633789062,2510.080078125,145.96499633789062L2510.080078125,145.96499633789062C2503.4267578125,145.96499633789062,2497.283447265625,144.3216552734375,2491.650146484375,141.03500366210938C2486.016845703125,137.74832153320312,2481.556640625,133.29165649414062,2478.27001953125,127.66500854492188C2474.9833984375,122.03167724609375,2473.340087890625,115.885009765625,2473.340087890625,109.22500610351562L2473.340087890625,109.22500610351562L2473.340087890625,89.77499389648438C2473.340087890625,83.114990234375,2474.9833984375,76.9716796875,2478.27001953125,71.344970703125C2481.556640625,65.711669921875,2486.016845703125,61.25164794921875,2491.650146484375,57.96502685546875C2497.283447265625,54.6783447265625,2503.4267578125,53.03497314453125,2510.080078125,53.03497314453125L2510.080078125,53.03497314453125ZM2478.080078125,109.22500610351562C2478.080078125,115.03167724609375,2479.510009765625,120.38833618164062,2482.3701171875,125.29501342773438C2485.22998046875,130.20166015625,2489.113525390625,134.08499145507812,2494.02001953125,136.94500732421875C2498.9267578125,139.79833984375,2504.280029296875,141.22500610351562,2510.080078125,141.22500610351562L2510.080078125,141.22500610351562C2515.880126953125,141.22500610351562,2521.2333984375,139.79833984375,2526.14013671875,136.94500732421875C2531.046630859375,134.08499145507812,2534.93017578125,130.20166015625,2537.7900390625,125.29501342773438C2540.650146484375,120.38833618164062,2542.080078125,115.03167724609375,2542.080078125,109.22500610351562L2542.080078125,109.22500610351562L2542.080078125,89.77499389648438C2542.080078125,83.96832275390625,2540.650146484375,78.6116943359375,2537.7900390625,73.70501708984375C2534.93017578125,68.79833984375,2531.046630859375,64.9183349609375,2526.14013671875,62.06500244140625C2521.2333984375,59.20501708984375,2515.880126953125,57.7750244140625,2510.080078125,57.7750244140625L2510.080078125,57.7750244140625C2504.280029296875,57.7750244140625,2498.9267578125,59.20501708984375,2494.02001953125,62.06500244140625C2489.113525390625,64.9183349609375,2485.22998046875,68.79833984375,2482.3701171875,73.70501708984375C2479.510009765625,78.6116943359375,2478.080078125,83.96832275390625,2478.080078125,89.77499389648438L2478.080078125,89.77499389648438L2478.080078125,109.22500610351562ZM2624.130126953125,57.905029296875C2629.25,60.29168701171875,2633.280029296875,63.8316650390625,2636.219970703125,68.5250244140625C2639.166748046875,73.21832275390625,2640.64013671875,78.42498779296875,2640.64013671875,84.14498901367188L2640.64013671875,84.14498901367188C2640.64013671875,90.79833984375,2638.613525390625,96.74832153320312,2634.56005859375,101.9949951171875C2630.5068359375,107.24166870117188,2625.323486328125,110.71832275390625,2619.010009765625,112.42498779296875L2619.010009765625,112.42498779296875L2641.66015625,144.04501342773438L2636.030029296875,144.04501342773438L2614.14013671875,113.32501220703125L2610.050048828125,113.45498657226562L2577.920166015625,113.45498657226562L2577.920166015625,144.04501342773438L2573.18017578125,144.04501342773438L2573.18017578125,54.95501708984375L2607.10009765625,54.95501708984375C2610.860107421875,54.95501708984375,2614.08349609375,55.191650390625,2616.77001953125,55.66497802734375C2619.456787109375,56.13165283203125,2621.91015625,56.87835693359375,2624.130126953125,57.905029296875L2624.130126953125,57.905029296875ZM2577.920166015625,108.71499633789062L2611.330078125,108.71499633789062C2615.763427734375,108.71499633789062,2619.860107421875,107.60501098632812,2623.6201171875,105.385009765625C2627.373291015625,103.17166137695312,2630.360107421875,100.18499755859375,2632.580078125,96.42498779296875C2634.79345703125,92.67166137695312,2635.900146484375,88.57833862304688,2635.900146484375,84.14498901367188L2635.900146484375,84.14498901367188C2635.900146484375,79.191650390625,2634.60009765625,74.711669921875,2632,70.70501708984375C2629.400146484375,66.691650390625,2625.79345703125,63.70501708984375,2621.18017578125,61.7449951171875L2621.18017578125,61.7449951171875C2617.853515625,60.37835693359375,2613.16015625,59.69500732421875,2607.10009765625,59.69500732421875L2607.10009765625,59.69500732421875L2577.920166015625,59.69500732421875L2577.920166015625,108.71499633789062Z"/></g></g></g></g></svg>