<svg xmlns="http://www.w3.org/2000/svg" fill="none" viewBox="0 0 400 400"><g clip-path="url(#a)"><path fill="url(#b)" d="M200 400a200 200 0 1 0 0-400 200 200 0 0 0 0 400Z"/><g fill="#fff" clip-path="url(#c)"><path d="M249 217h-4 4Zm-49-27c-10-21-39-60-66-79-26-18-36-15-42-12-8 4-9 15-9 22s4 55 6 63c8 27 36 36 63 33h4-4c-39 6-73 20-28 70 49 50 67-11 76-43 10 32 21 91 76 43 42-43 12-64-27-70h-4 4c26 3 55-6 63-33 2-8 6-56 6-63s-1-18-9-22c-6-3-16-6-42 12-27 19-56 58-67 79Z"/></g></g><defs><clipPath id="a"><path fill="#fff" d="M0 0h400v400H0z"/></clipPath><clipPath id="c"><path fill="#fff" d="M83 97h235v209H83z"/></clipPath><linearGradient id="b" x1="200" x2="200" y1="0" y2="400" gradientUnits="userSpaceOnUse"><stop stop-color="#0088FE"/><stop offset="1" stop-color="#59B9FF"/></linearGradient></defs></svg>